<svg width="115" height="192" viewBox="0 0 115 192" fill="none" xmlns="http://www.w3.org/2000/svg"><path d="M2.99999 192L0.467326 180.734L11.4902 184.174L2.99999 192ZM115 7.93893e-06C115 78.4597 92.076 118.333 66.8693 141.718C54.2932 153.385 41.1907 160.907 30.2374 167.054C24.747 170.136 19.8304 172.853 15.7518 175.581C11.6708 178.311 8.5177 180.996 6.5093 183.969L4.85195 182.85C7.0761 179.557 10.4824 176.7 14.6398 173.919C18.7996 171.136 23.8004 168.373 29.2585 165.31C40.2023 159.168 53.1215 151.744 65.509 140.252C90.2294 117.318 113 78.02 113 7.79717e-06L115 7.93893e-06Z" fill="#4100CB"/></svg>