<svg width="115" height="192" viewBox="0 0 115 192" fill="none" xmlns="http://www.w3.org/2000/svg"><path d="M112 192L114.533 180.734L103.51 184.174L112 192ZM7.62939e-06 -7.93893e-06C5.51449e-06 78.4597 22.924 118.333 48.1307 141.718C60.7068 153.385 73.8093 160.907 84.7626 167.054C90.253 170.136 95.1696 172.853 99.2482 175.581C103.329 178.311 106.482 180.996 108.491 183.969L110.148 182.85C107.924 179.557 104.518 176.7 100.36 173.919C96.2004 171.136 91.1996 168.373 85.7415 165.31C74.7977 159.168 61.8785 151.744 49.491 140.252C24.7706 117.318 2.00001 78.02 2.00001 -7.79717e-06L7.62939e-06 -7.93893e-06Z" fill="#4100CB"/></svg>