<svg width="260" height="125" viewBox="0 0 260 125" fill="none" xmlns="http://www.w3.org/2000/svg"><path d="M260 121L249.128 124.889L251.196 113.529L260 121ZM0 0C108.932 0 162.801 26.0746 194.04 54.0998C209.637 68.093 219.548 82.5362 227.815 94.2961C231.957 100.189 235.662 105.373 239.467 109.53C243.265 113.68 247.112 116.749 251.507 118.455L250.783 120.32C245.994 118.46 241.903 115.154 237.991 110.88C234.086 106.612 230.308 101.321 226.179 95.4462C217.901 83.671 208.109 69.409 192.704 55.5885C161.937 27.9863 108.6 2 0 2V0Z" fill="#4100CB"/></svg>