<svg width="22" height="24" viewBox="0 0 22 24" fill="none" xmlns="http://www.w3.org/2000/svg"><path fill-rule="evenodd" clip-rule="evenodd" d="M2.87322 7.07148C2.87322 3.1831 6.13736 0.0309448 10.1639 0.0309448C14.1904 0.0309448 17.4546 3.1831 17.4546 7.07148C17.4546 10.9599 14.1904 14.112 10.1639 14.112C6.13736 14.112 2.87322 10.9599 2.87322 7.07148ZM10.1639 11.2958C7.74797 11.2958 5.78949 9.40451 5.78949 7.07148C5.78949 4.73845 7.74797 2.84716 10.1639 2.84716C12.5798 2.84716 14.5383 4.73845 14.5383 7.07148C14.5383 9.40451 12.5798 11.2958 10.1639 11.2958Z" fill="#000"/><path d="M0.170898 12.8862C1.99672 15.8061 5.15611 17.861 8.83427 18.264V21.1525H5.78949V23.9688H14.5383V21.1525H11.7505V18.233C17.4424 17.4855 21.8289 12.7732 21.8289 7.07149C21.8289 4.86973 21.1748 2.8155 20.044 1.08015L17.5596 2.55605C18.4165 3.86217 18.9127 5.41088 18.9127 7.07149C18.9127 11.7375 14.9957 15.5201 10.1638 15.5201C6.97472 15.5201 4.18414 13.8723 2.65528 11.4103L0.170898 12.8862Z" fill="#000"/></svg>