<svg width="24" height="24" viewBox="0 0 24 24" fill="none" xmlns="http://www.w3.org/2000/svg">
<path fill-rule="evenodd" clip-rule="evenodd" d="M0 20.4C0 22.3882 1.61178 24 3.6 24H20.4C22.3882 24 24 22.3882 24 20.4V3.6C24 1.61178 22.3882 0 20.4 0H3.6C1.61177 0 0 1.61177 0 3.6V20.4ZM21.6 20.4C21.6 21.0627 21.0627 21.6 20.4 21.6H3.6C2.93726 21.6 2.4 21.0627 2.4 20.4V3.6C2.4 2.93726 2.93726 2.4 3.6 2.4H9.6V12.0133L12.474 12.0134L14.4001 9.43702L16.3261 12.0134H19.2001L19.2 2.4H20.4C21.0627 2.4 21.6 2.93726 21.6 3.6V20.4ZM16.8 2.4H12V8.80302L14.4001 5.59255L16.8 8.80285V2.4Z" fill="black"/>
</svg>
