<svg width="12" height="80" viewBox="0 0 12 80" fill="none" xmlns="http://www.w3.org/2000/svg">
<path d="M6 80L11.7735 70L0.226494 70L6 80ZM5 -4.37114e-08C5 0.103126 5 0.206091 5 0.308895C5 0.411699 5 0.514343 5 0.616825C5 0.719308 5 0.82163 5 0.923792C5 1.02595 5 1.12795 5 1.2298C5 1.33164 5 1.43332 5 1.53484C5 1.63636 5 1.73772 5 1.83893C5 1.94013 5 2.04117 5 2.14206C5 2.24294 5 2.34367 5 2.44423C5 2.5448 5 2.64521 5 2.74546C5 2.8457 5 2.94579 5 3.04573C5 3.14566 5 3.24543 5 3.34505C5 3.44466 5 3.54412 5 3.64342C5 3.74272 5 3.84187 5 3.94085C5 4.03984 5 4.13866 5 4.23733C5 4.33601 5 4.43452 5 4.53288C5 4.63123 5 4.72943 5 4.82748C5 4.92552 5 5.02341 5 5.12114C5 5.21887 5 5.31644 5 5.41386C5 5.51128 5 5.60855 5 5.70565C5 5.80276 5 5.89971 5 5.99651C5 6.09331 5 6.18995 5 6.28643C5 6.38292 5 6.47925 5 6.57543C5 6.6716 5 6.76763 5 6.86349C5 6.95936 5 7.05507 5 7.15063C5 7.24619 5 7.3416 5 7.43685C5 7.5321 5 7.62719 5 7.72214C5 7.81708 5 7.91187 5 8.00651C5 8.10114 5 8.19563 5 8.28996C5 8.38429 5 8.47847 5 8.57249C5 8.66652 5 8.76039 5 8.85411C5 8.94783 5 9.0414 5 9.13481C5 9.22823 5 9.32149 5 9.4146C5 9.50771 5 9.60067 5 9.69348C5 9.78629 5 9.87894 5 9.97145C5 10.064 5 10.1563 5 10.2485C5 10.3407 5 10.4328 5 10.5247C5 10.6166 5 10.7083 5 10.7999C5 10.8915 5 10.983 5 11.0743C5 11.1656 5 11.2567 5 11.3477C5 11.4387 5 11.5296 5 11.6203C5 11.711 5 11.8015 5 11.8919C5 11.9823 5 12.0726 5 12.1627C5 12.2528 5 12.3428 5 12.4326C5 12.5224 5 12.612 5 12.7015C5 12.7911 5 12.8804 5 12.9696C5 13.0588 5 13.1479 5 13.2368C5 13.3258 5 13.4145 5 13.5031C5 13.5918 5 13.6802 5 13.7686C5 13.8569 5 13.9451 5 14.0331C5 14.1212 5 14.209 5 14.2968C5 14.3845 5 14.4721 5 14.5596C5 14.647 5 14.7343 5 14.8215C5 14.9086 5 14.9957 5 15.0825C5 15.1694 5 15.2561 5 15.3427C5 15.4293 5 15.5157 5 15.602C5 15.6883 5 15.7744 5 15.8604C5 15.9464 5 16.0322 5 16.1179C5 16.2036 5 16.2892 5 16.3746C5 16.46 5 16.5453 5 16.6304C5 16.7156 5 16.8005 5 16.8854C5 16.9702 5 17.0549 5 17.1395C5 17.224 5 17.3084 5 17.3927C5 17.477 5 17.5611 5 17.6451C5 17.7291 5 17.8129 5 17.8966C5 17.9803 5 18.0639 5 18.1473C5 18.2307 5 18.314 5 18.3971C5 18.4802 5 18.5632 5 18.646C5 18.7289 5 18.8116 5 18.8942C5 18.9767 5 19.0591 5 19.1414C5 19.2237 5 19.3058 5 19.3878C5 19.4698 5 19.5517 5 19.6334C5 19.7151 5 19.7967 5 19.8782C5 19.9596 5 20.0409 5 20.122C5 20.2032 5 20.2842 5 20.3651C5 20.446 5 20.5267 5 20.6073C5 20.6879 5 20.7684 5 20.8487C5 20.929 5 21.0092 5 21.0892C5 21.1693 5 21.2492 5 21.329C5 21.4087 5 21.4884 5 21.5678C5 21.6473 5 21.7267 5 21.8059C5 21.8851 5 21.9642 5 22.0431C5 22.1221 5 22.2009 5 22.2795C5 22.3582 5 22.4367 5 22.5151C5 22.5935 5 22.6718 5 22.7499C5 22.828 5 22.906 5 22.9838C5 23.0617 5 23.1394 5 23.217C5 23.2945 5 23.372 5 23.4493C5 23.5266 5 23.6037 5 23.6808C5 23.7578 5 23.8347 5 23.9115C5 23.9882 5 24.0648 5 24.1413C5 24.2178 5 24.2942 5 24.3704C5 24.4466 5 24.5227 5 24.5987C5 24.6746 5 24.7504 5 24.8261C5 24.9018 5 24.9774 5 25.0528C5 25.1282 5 25.2035 5 25.2786C5 25.3538 5 25.4288 5 25.5037C5 25.5786 5 25.6533 5 25.7279C5 25.8025 5 25.877 5 25.9514C5 26.0257 5 26.0999 5 26.174C5 26.2481 5 26.3221 5 26.3959C5 26.4697 5 26.5434 5 26.617C5 26.6905 5 26.764 5 26.8373C5 26.9106 5 26.9837 5 27.0568C5 27.1298 5 27.2027 5 27.2755C5 27.3483 5 27.4209 5 27.4934C5 27.5659 5 27.6383 5 27.7106C5 27.7828 5 27.8549 5 27.9269C5 27.9989 5 28.0708 5 28.1425C5 28.2142 5 28.2858 5 28.3573C5 28.4288 5 28.5001 5 28.5714C5 28.6426 5 28.7137 5 28.7846C5 28.8556 5 28.9264 5 28.9971C5 29.0678 5 29.1384 5 29.2088C5 29.2793 5 29.3496 5 29.4198C5 29.49 5 29.56 5 29.63C5 29.6999 5 29.7697 5 29.8394C5 29.9091 5 29.9786 5 30.048C5 30.1175 5 30.1868 5 30.2559C5 30.3251 5 30.3942 5 30.4631C5 30.532 5 30.6008 5 30.6695C5 30.7381 5 30.8067 5 30.8751C5 30.9435 5 31.0118 5 31.0799C5 31.1481 5 31.2161 5 31.2841C5 31.352 5 31.4198 5 31.4874C5 31.5551 5 31.6226 5 31.69C5 31.7575 5 31.8247 5 31.8919C5 31.9591 5 32.0261 5 32.093C5 32.16 5 32.2267 5 32.2934C5 32.3601 5 32.4266 5 32.4931C5 32.5595 5 32.6258 5 32.692C5 32.7581 5 32.8242 5 32.8901C5 32.956 5 33.0219 5 33.0875C5 33.1532 5 33.2188 5 33.2842C5 33.3497 5 33.415 5 33.4802C5 33.5454 5 33.6105 5 33.6754C5 33.7404 5 33.8052 5 33.8699C5 33.9346 5 33.9992 5 34.0637C5 34.1281 5 34.1925 5 34.2567C5 34.3209 5 34.385 5 34.449C5 34.513 5 34.5769 5 34.6406C5 34.7044 5 34.768 5 34.8315C5 34.895 5 34.9584 5 35.0217C5 35.0849 5 35.1481 5 35.2111C5 35.2741 5 35.337 5 35.3998C5 35.4626 5 35.5253 5 35.5878C5 35.6504 5 35.7128 5 35.7751C5 35.8374 5 35.8996 5 35.9617C5 36.0238 5 36.0857 5 36.1476C5 36.2094 5 36.2711 5 36.3328C5 36.3944 5 36.4558 5 36.5172C5 36.5786 5 36.6398 5 36.701C5 36.7621 5 36.8231 5 36.884C5 36.945 5 37.0057 5 37.0664C5 37.1271 5 37.1876 5 37.2481C5 37.3085 5 37.3688 5 37.429C5 37.4892 5 37.5493 5 37.6093C5 37.6693 5 37.7291 5 37.7889C5 37.8486 5 37.9083 5 37.9678C5 38.0273 5 38.0867 5 38.146C5 38.2053 5 38.2644 5 38.3235C5 38.3826 5 38.4415 5 38.5003C5 38.5592 5 38.6179 5 38.6765C5 38.7351 5 38.7936 5 38.8519C5 38.9103 5 38.9686 5 39.0267C5 39.0849 5 39.1429 5 39.2008C5 39.2587 5 39.3166 5 39.3742C5 39.4319 5 39.4895 5 39.547C5 39.6045 5 39.6618 5 39.7191C5 39.7763 5 39.8335 5 39.8905C5 39.9475 5 40.0044 5 40.0612C5 40.118 5 40.1747 5 40.2313C5 40.2879 5 40.3443 5 40.4007C5 40.457 5 40.5133 5 40.5694C5 40.6256 5 40.6816 5 40.7375C5 40.7934 5 40.8492 5 40.9049C5 40.9606 5 41.0162 5 41.0717C5 41.1272 5 41.1825 5 41.2378C5 41.293 5 41.3482 5 41.4032C5 41.4583 5 41.5132 5 41.568C5 41.6228 5 41.6775 5 41.7321C5 41.7867 5 41.8412 5 41.8956C5 41.95 5 42.0043 5 42.0585C5 42.1126 5 42.1667 5 42.2207C5 42.2746 5 42.3285 5 42.3822C5 42.4359 5 42.4896 5 42.5431C5 42.5966 5 42.6501 5 42.7034C5 42.7567 5 42.8099 5 42.863C5 42.9161 5 42.9691 5 43.022C5 43.0749 5 43.1276 5 43.1803C5 43.233 5 43.2856 5 43.338C5 43.3905 5 43.4428 5 43.4951C5 43.5474 5 43.5995 5 43.6516C5 43.7036 5 43.7555 5 43.8074C5 43.8592 5 43.9109 5 43.9626C5 44.0142 5 44.0657 5 44.1171C5 44.1685 5 44.2199 5 44.2711C5 44.3223 5 44.3734 5 44.4244C5 44.4754 5 44.5263 5 44.5771C5 44.6279 5 44.6786 5 44.7292C5 44.7798 5 44.8302 5 44.8806C5 44.931 5 44.9813 5 45.0315C5 45.0817 5 45.1317 5 45.1817C5 45.2317 5 45.2816 5 45.3313C5 45.3811 5 45.4308 5 45.4803C5 45.5299 5 45.5794 5 45.6287C5 45.6781 5 45.7274 5 45.7765C5 45.8257 5 45.8748 5 45.9237C5 45.9727 5 46.0216 5 46.0703C5 46.1191 5 46.1678 5 46.2163C5 46.2649 5 46.3133 5 46.3617C5 46.4101 5 46.4583 5 46.5065C5 46.5547 5 46.6027 5 46.6507C5 46.6987 5 46.7465 5 46.7943C5 46.8421 5 46.8897 5 46.9373C5 46.9849 5 47.0324 5 47.0797C5 47.1271 5 47.1744 5 47.2216C5 47.2687 5 47.3158 5 47.3628C5 47.4098 5 47.4567 5 47.5035C5 47.5502 5 47.5969 5 47.6435C5 47.6901 5 47.7366 5 47.783C5 47.8294 5 47.8757 5 47.9219C5 47.9681 5 48.0143 5 48.0603C5 48.1063 5 48.1522 5 48.198C5 48.2439 5 48.2896 5 48.3352C5 48.3808 5 48.4264 5 48.4718C5 48.5173 5 48.5626 5 48.6079C5 48.6531 5 48.6983 5 48.7433C5 48.7884 5 48.8334 5 48.8782C5 48.9231 5 48.9679 5 49.0126C5 49.0573 5 49.1018 5 49.1463C5 49.1908 5 49.2352 5 49.2795C5 49.3239 5 49.3681 5 49.4122C5 49.4563 5 49.5004 5 49.5443C5 49.5882 5 49.6321 5 49.6758C5 49.7196 5 49.7632 5 49.8068C5 49.8504 5 49.8938 5 49.9372C5 49.9806 5 50.0239 5 50.0671C5 50.1103 5 50.1534 5 50.1964C5 50.2394 5 50.2824 5 50.3252C5 50.368 5 50.4108 5 50.4534C5 50.4961 5 50.5386 5 50.5811C5 50.6236 5 50.6659 5 50.7082C5 50.7505 5 50.7927 5 50.8348C5 50.8769 5 50.919 5 50.9609C5 51.0028 5 51.0447 5 51.0864C5 51.1282 5 51.1698 5 51.2114C5 51.253 5 51.2944 5 51.3358C5 51.3772 5 51.4185 5 51.4598C5 51.501 5 51.5421 5 51.5831C5 51.6242 5 51.6651 5 51.706C5 51.7469 5 51.7876 5 51.8283C5 51.869 5 51.9096 5 51.9501C5 51.9906 5 52.0311 5 52.0714C5 52.1118 5 52.152 5 52.1922C5 52.2323 5 52.2724 5 52.3124C5 52.3524 5 52.3923 5 52.4321C5 52.4719 5 52.5117 5 52.5513C5 52.591 5 52.6305 5 52.67C5 52.7095 5 52.7489 5 52.7882C5 52.8275 5 52.8667 5 52.9059C5 52.945 5 52.984 5 53.023C5 53.062 5 53.1009 5 53.1397C5 53.1785 5 53.2172 5 53.2558C5 53.2944 5 53.333 5 53.3714C5 53.4099 5 53.4483 5 53.4866C5 53.5249 5 53.5631 5 53.6012C5 53.6393 5 53.6774 5 53.7153C5 53.7533 5 53.7912 5 53.829C5 53.8668 5 53.9045 5 53.9421C5 53.9797 5 54.0173 5 54.0547C5 54.0922 5 54.1296 5 54.1669C5 54.2042 5 54.2414 5 54.2786C5 54.3157 5 54.3528 5 54.3897C5 54.4267 5 54.4636 5 54.5004C5 54.5372 5 54.574 5 54.6106C5 54.6473 5 54.6839 5 54.7204C5 54.7568 5 54.7933 5 54.8296C5 54.8659 5 54.9022 5 54.9384C5 54.9745 5 55.0106 5 55.0466C5 55.0826 5 55.1186 5 55.1544C5 55.1903 5 55.2261 5 55.2618C5 55.2975 5 55.3331 5 55.3686C5 55.4042 5 55.4396 5 55.475C5 55.5104 5 55.5457 5 55.5809C5 55.6161 5 55.6513 5 55.6864C5 55.7214 5 55.7564 5 55.7914C5 55.8263 5 55.8611 5 55.8959C5 55.9306 5 55.9653 5 55.9999C5 56.0345 5 56.0691 5 56.1035C5 56.138 5 56.1724 5 56.2067C5 56.241 5 56.2752 5 56.3094C5 56.3435 5 56.3776 5 56.4116C5 56.4456 5 56.4795 5 56.5134C5 56.5472 5 56.581 5 56.6147C5 56.6484 5 56.682 5 56.7155C5 56.7491 5 56.7826 5 56.816C5 56.8494 5 56.8827 5 56.9159C5 56.9492 5 56.9824 5 57.0155C5 57.0486 5 57.0816 5 57.1146C5 57.1475 5 57.1804 5 57.2132C5 57.246 5 57.2788 5 57.3114C5 57.3441 5 57.3767 5 57.4092C5 57.4417 5 57.4742 5 57.5065C5 57.5389 5 57.5712 5 57.6034C5 57.6357 5 57.6678 5 57.6999C5 57.732 5 57.764 5 57.7959C5 57.8279 5 57.8598 5 57.8916C5 57.9234 5 57.9551 5 57.9867C5 58.0184 5 58.05 5 58.0815C5 58.113 5 58.1445 5 58.1758C5 58.2072 5 58.2385 5 58.2697C5 58.301 5 58.3321 5 58.3632C5 58.3943 5 58.4254 5 58.4563C5 58.4873 5 58.5182 5 58.549C5 58.5798 5 58.6105 5 58.6412C5 58.6719 5 58.7025 5 58.733C5 58.7636 5 58.7941 5 58.8245C5 58.8549 5 58.8852 5 58.9155C5 58.9457 5 58.9759 5 59.0061C5 59.0362 5 59.0663 5 59.0963C5 59.1263 5 59.1562 5 59.1861C5 59.2159 5 59.2457 5 59.2755C5 59.3052 5 59.3349 5 59.3644C5 59.394 5 59.4236 5 59.453C5 59.4825 5 59.5119 5 59.5412C5 59.5706 5 59.5998 5 59.629C5 59.6582 5 59.6874 5 59.7164C5 59.7455 5 59.7745 5 59.8034C5 59.8324 5 59.8613 5 59.8901C5 59.9189 5 59.9476 5 59.9763C5 60.005 5 60.0336 5 60.0622C5 60.0907 5 60.1192 5 60.1476C5 60.176 5 60.2044 5 60.2327C5 60.261 5 60.2892 5 60.3174C5 60.3456 5 60.3737 5 60.4017C5 60.4298 5 60.4577 5 60.4857C5 60.5136 5 60.5414 5 60.5692C5 60.597 5 60.6247 5 60.6524C5 60.6801 5 60.7077 5 60.7352C5 60.7628 5 60.7903 5 60.8177C5 60.8451 5 60.8725 5 60.8998C5 60.9271 5 60.9543 5 60.9815C5 61.0087 5 61.0358 5 61.0628C5 61.0899 5 61.1169 5 61.1438C5 61.1707 5 61.1976 5 61.2244C5 61.2512 5 61.278 5 61.3047C5 61.3314 5 61.358 5 61.3846C5 61.4112 5 61.4377 5 61.4641C5 61.4906 5 61.517 5 61.5433C5 61.5697 5 61.5959 5 61.6222C5 61.6484 5 61.6745 5 61.7006C5 61.7268 5 61.7528 5 61.7788C5 61.8048 5 61.8307 5 61.8566C5 61.8825 5 61.9083 5 61.934C5 61.9598 5 61.9855 5 62.0111C5 62.0368 5 62.0623 5 62.0879C5 62.1134 5 62.1389 5 62.1643C5 62.1897 5 62.2151 5 62.2404C5 62.2657 5 62.2909 5 62.3161C5 62.3413 5 62.3664 5 62.3915C5 62.4166 5 62.4416 5 62.4666C5 62.4916 5 62.5165 5 62.5413C5 62.5662 5 62.591 5 62.6157C5 62.6405 5 62.6652 5 62.6898C5 62.7144 5 62.739 5 62.7636C5 62.7881 5 62.8126 5 62.837C5 62.8614 5 62.8858 5 62.9101C5 62.9344 5 62.9587 5 62.9829C5 63.0071 5 63.0312 5 63.0553C5 63.0794 5 63.1035 5 63.1275C5 63.1515 5 63.1754 5 63.1993C5 63.2232 5 63.247 5 63.2708C5 63.2946 5 63.3183 5 63.342C5 63.3657 5 63.3893 5 63.4129C5 63.4365 5 63.46 5 63.4835C5 63.507 5 63.5304 5 63.5538C5 63.5771 5 63.6005 5 63.6237C5 63.647 5 63.6702 5 63.6934C5 63.7166 5 63.7397 5 63.7628C5 63.7858 5 63.8089 5 63.8318C5 63.8548 5 63.8777 5 63.9006C5 63.9235 5 63.9463 5 63.9691C5 63.9918 5 64.0146 5 64.0372C5 64.0599 5 64.0825 5 64.1051C5 64.1277 5 64.1502 5 64.1727C5 64.1952 5 64.2176 5 64.24C5 64.2624 5 64.2847 5 64.307C5 64.3293 5 64.3515 5 64.3737C5 64.3959 5 64.4181 5 64.4402C5 64.4623 5 64.4843 5 64.5063C5 64.5283 5 64.5503 5 64.5722C5 64.5941 5 64.616 5 64.6378C5 64.6596 5 64.6814 5 64.7031C5 64.7248 5 64.7465 5 64.7682C5 64.7898 5 64.8114 5 64.8329C5 64.8545 5 64.876 5 64.8974C5 64.9189 5 64.9403 5 64.9616C5 64.983 5 65.0043 5 65.0256C5 65.0469 5 65.0681 5 65.0893C5 65.1105 5 65.1316 5 65.1527C5 65.1738 5 65.1949 5 65.2159C5 65.2369 5 65.2579 5 65.2788C5 65.2997 5 65.3206 5 65.3414C5 65.3623 5 65.3831 5 65.4038C5 65.4246 5 65.4453 5 65.4659C5 65.4866 5 65.5072 5 65.5278C5 65.5484 5 65.5689 5 65.5894C5 65.6099 5 65.6304 5 65.6508C5 65.6712 5 65.6916 5 65.7119C5 65.7322 5 65.7525 5 65.7728C5 65.793 5 65.8132 5 65.8334C5 65.8536 5 65.8737 5 65.8938C5 65.9139 5 65.9339 5 65.9539C5 65.9739 5 65.9939 5 66.0138C5 66.0337 5 66.0536 5 66.0735C5 66.0933 5 66.1131 5 66.1329C5 66.1527 5 66.1724 5 66.1921C5 66.2118 5 66.2314 5 66.251C5 66.2707 5 66.2902 5 66.3098C5 66.3293 5 66.3488 5 66.3682C5 66.3877 5 66.4071 5 66.4265C5 66.4459 5 66.4652 5 66.4846C5 66.5039 5 66.5231 5 66.5424C5 66.5616 5 66.5808 5 66.6C5 66.6191 5 66.6382 5 66.6573C5 66.6764 5 66.6954 5 66.7145C5 66.7335 5 66.7525 5 66.7714C5 66.7903 5 66.8092 5 66.8281C5 66.847 5 66.8658 5 66.8846C5 66.9034 5 66.9222 5 66.9409C5 66.9596 5 66.9783 5 66.997C5 67.0156 5 67.0343 5 67.0528C5 67.0714 5 67.09 5 67.1085C5 67.127 5 67.1455 5 67.164C5 67.1824 5 67.2008 5 67.2192C5 67.2376 5 67.256 5 67.2743C5 67.2926 5 67.3109 5 67.3291C5 67.3474 5 67.3656 5 67.3838C5 67.402 5 67.4201 5 67.4382C5 67.4563 5 67.4744 5 67.4925C5 67.5105 5 67.5286 5 67.5466C5 67.5645 5 67.5825 5 67.6004C5 67.6184 5 67.6363 5 67.6541C5 67.672 5 67.6898 5 67.7076C5 67.7254 5 67.7432 5 67.7609C5 67.7787 5 67.7964 5 67.8141C5 67.8317 5 67.8494 5 67.867C5 67.8846 5 67.9022 5 67.9198C5 67.9373 5 67.9549 5 67.9724C5 67.9899 5 68.0073 5 68.0248C5 68.0422 5 68.0596 5 68.077C5 68.0944 5 68.1117 5 68.1291C5 68.1464 5 68.1637 5 68.181C5 68.1982 5 68.2155 5 68.2327C5 68.2499 5 68.2671 5 68.2842C5 68.3014 5 68.3185 5 68.3356C5 68.3527 5 68.3698 5 68.3868C5 68.4039 5 68.4209 5 68.4379C5 68.4549 5 68.4718 5 68.4888C5 68.5057 5 68.5226 5 68.5395C5 68.5564 5 68.5733 5 68.5901C5 68.6069 5 68.6237 5 68.6405C5 68.6573 5 68.674 5 68.6908C5 68.7075 5 68.7242 5 68.7409C5 68.7576 5 68.7742 5 68.7908C5 68.8075 5 68.8241 5 68.8407C5 68.8572 5 68.8738 5 68.8903C5 68.9069 5 68.9234 5 68.9398C5 68.9563 5 68.9728 5 68.9892C5 69.0057 5 69.0221 5 69.0385C5 69.0548 5 69.0712 5 69.0876C5 69.1039 5 69.1202 5 69.1365C5 69.1528 5 69.1691 5 69.1853C5 69.2016 5 69.2178 5 69.234C5 69.2502 5 69.2664 5 69.2826C5 69.2987 5 69.3149 5 69.331C5 69.3471 5 69.3632 5 69.3793C5 69.3954 5 69.4114 5 69.4274C5 69.4435 5 69.4595 5 69.4755C5 69.4915 5 69.5074 5 69.5234C5 69.5393 5 69.5553 5 69.5712C5 69.5871 5 69.603 5 69.6188C5 69.6347 5 69.6506 5 69.6664C5 69.6822 5 69.698 5 69.7138C5 69.7296 5 69.7454 5 69.7611C5 69.7769 5 69.7926 5 69.8083C5 69.8241 5 69.8398 5 69.8554C5 69.8711 5 69.8868 5 69.9024C5 69.9181 5 69.9337 5 69.9493C5 69.9649 5 69.9805 5 69.996C5 70.0116 5 70.0272 5 70.0427C5 70.0582 5 70.0738 5 70.0893C5 70.1048 5 70.1202 5 70.1357C5 70.1512 5 70.1666 5 70.1821C5 70.1975 5 70.2129 5 70.2283C5 70.2437 5 70.2591 5 70.2745C5 70.2899 5 70.3052 5 70.3205C5 70.3359 5 70.3512 5 70.3665C5 70.3818 5 70.3971 5 70.4124C5 70.4277 5 70.4429 5 70.4582C5 70.4734 5 70.4887 5 70.5039C5 70.5191 5 70.5343 5 70.5495C5 70.5647 5 70.5799 5 70.5951C5 70.6102 5 70.6254 5 70.6405C5 70.6556 5 70.6708 5 70.6859C5 70.701 5 70.7161 5 70.7312C5 70.7463 5 70.7613 5 70.7764C5 70.7914 5 70.8065 5 70.8215C5 70.8366 5 70.8516 5 70.8666C5 70.8816 5 70.8966 5 70.9116C5 70.9266 5 70.9416 5 70.9565C5 70.9715 5 70.9864 5 71.0014L7 71.0014C7 70.9864 7 70.9715 7 70.9565C7 70.9416 7 70.9266 7 70.9116C7 70.8966 7 70.8816 7 70.8666C7 70.8516 7 70.8366 7 70.8215C7 70.8065 7 70.7914 7 70.7764C7 70.7613 7 70.7463 7 70.7312C7 70.7161 7 70.701 7 70.6859C7 70.6708 7 70.6556 7 70.6405C7 70.6254 7 70.6102 7 70.5951C7 70.5799 7 70.5647 7 70.5495C7 70.5343 7 70.5191 7 70.5039C7 70.4887 7 70.4734 7 70.4582C7 70.4429 7 70.4277 7 70.4124C7 70.3971 7 70.3818 7 70.3665C7 70.3512 7 70.3359 7 70.3205C7 70.3052 7 70.2899 7 70.2745C7 70.2591 7 70.2437 7 70.2283C7 70.2129 7 70.1975 7 70.1821C7 70.1666 7 70.1512 7 70.1357C7 70.1202 7 70.1048 7 70.0893C7 70.0738 7 70.0582 7 70.0427C7 70.0272 7 70.0116 7 69.996C7 69.9805 7 69.9649 7 69.9493C7 69.9337 7 69.9181 7 69.9024C7 69.8868 7 69.8711 7 69.8554C7 69.8398 7 69.8241 7 69.8083C7 69.7926 7 69.7769 7 69.7611C7 69.7454 7 69.7296 7 69.7138C7 69.698 7 69.6822 7 69.6664C7 69.6506 7 69.6347 7 69.6188C7 69.603 7 69.5871 7 69.5712C7 69.5553 7 69.5393 7 69.5234C7 69.5074 7 69.4915 7 69.4755C7 69.4595 7 69.4435 7 69.4274C7 69.4114 7 69.3954 7 69.3793C7 69.3632 7 69.3471 7 69.331C7 69.3149 7 69.2987 7 69.2826C7 69.2664 7 69.2502 7 69.234C7 69.2178 7 69.2016 7 69.1853C7 69.1691 7 69.1528 7 69.1365C7 69.1202 7 69.1039 7 69.0876C7 69.0712 7 69.0548 7 69.0385C7 69.0221 7 69.0057 7 68.9892C7 68.9728 7 68.9563 7 68.9398C7 68.9234 7 68.9069 7 68.8903C7 68.8738 7 68.8572 7 68.8407C7 68.8241 7 68.8075 7 68.7908C7 68.7742 7 68.7576 7 68.7409C7 68.7242 7 68.7075 7 68.6908C7 68.674 7 68.6573 7 68.6405C7 68.6237 7 68.6069 7 68.5901C7 68.5733 7 68.5564 7 68.5395C7 68.5226 7 68.5057 7 68.4888C7 68.4718 7 68.4549 7 68.4379C7 68.4209 7 68.4039 7 68.3868C7 68.3698 7 68.3527 7 68.3356C7 68.3185 7 68.3014 7 68.2842C7 68.2671 7 68.2499 7 68.2327C7 68.2155 7 68.1982 7 68.181C7 68.1637 7 68.1464 7 68.1291C7 68.1117 7 68.0944 7 68.077C7 68.0596 7 68.0422 7 68.0248C7 68.0073 7 67.9899 7 67.9724C7 67.9549 7 67.9373 7 67.9198C7 67.9022 7 67.8846 7 67.867C7 67.8494 7 67.8317 7 67.8141C7 67.7964 7 67.7787 7 67.7609C7 67.7432 7 67.7254 7 67.7076C7 67.6898 7 67.672 7 67.6541C7 67.6363 7 67.6184 7 67.6004C7 67.5825 7 67.5645 7 67.5466C7 67.5286 7 67.5105 7 67.4925C7 67.4744 7 67.4563 7 67.4382C7 67.4201 7 67.402 7 67.3838C7 67.3656 7 67.3474 7 67.3291C7 67.3109 7 67.2926 7 67.2743C7 67.256 7 67.2376 7 67.2192C7 67.2008 7 67.1824 7 67.164C7 67.1455 7 67.127 7 67.1085C7 67.09 7 67.0714 7 67.0528C7 67.0343 7 67.0156 7 66.997C7 66.9783 7 66.9596 7 66.9409C7 66.9222 7 66.9034 7 66.8846C7 66.8658 7 66.847 7 66.8281C7 66.8092 7 66.7903 7 66.7714C7 66.7525 7 66.7335 7 66.7145C7 66.6954 7 66.6764 7 66.6573C7 66.6382 7 66.6191 7 66.6C7 66.5808 7 66.5616 7 66.5424C7 66.5231 7 66.5039 7 66.4846C7 66.4652 7 66.4459 7 66.4265C7 66.4071 7 66.3877 7 66.3682C7 66.3488 7 66.3293 7 66.3098C7 66.2902 7 66.2707 7 66.251C7 66.2314 7 66.2118 7 66.1921C7 66.1724 7 66.1527 7 66.1329C7 66.1131 7 66.0933 7 66.0735C7 66.0536 7 66.0337 7 66.0138C7 65.9939 7 65.9739 7 65.9539C7 65.9339 7 65.9139 7 65.8938C7 65.8737 7 65.8536 7 65.8334C7 65.8132 7 65.793 7 65.7728C7 65.7525 7 65.7322 7 65.7119C7 65.6916 7 65.6712 7 65.6508C7 65.6304 7 65.6099 7 65.5894C7 65.5689 7 65.5484 7 65.5278C7 65.5072 7 65.4866 7 65.4659C7 65.4453 7 65.4246 7 65.4038C7 65.3831 7 65.3623 7 65.3414C7 65.3206 7 65.2997 7 65.2788C7 65.2579 7 65.2369 7 65.2159C7 65.1949 7 65.1738 7 65.1527C7 65.1316 7 65.1105 7 65.0893C7 65.0681 7 65.0469 7 65.0256C7 65.0043 7 64.983 7 64.9616C7 64.9403 7 64.9189 7 64.8974C7 64.876 7 64.8545 7 64.8329C7 64.8114 7 64.7898 7 64.7682C7 64.7465 7 64.7248 7 64.7031C7 64.6814 7 64.6596 7 64.6378C7 64.616 7 64.5941 7 64.5722C7 64.5503 7 64.5283 7 64.5063C7 64.4843 7 64.4623 7 64.4402C7 64.4181 7 64.3959 7 64.3737C7 64.3515 7 64.3293 7 64.307C7 64.2847 7 64.2624 7 64.24C7 64.2176 7 64.1952 7 64.1727C7 64.1502 7 64.1277 7 64.1051C7 64.0825 7 64.0599 7 64.0372C7 64.0146 7 63.9918 7 63.9691C7 63.9463 7 63.9235 7 63.9006C7 63.8777 7 63.8548 7 63.8318C7 63.8089 7 63.7858 7 63.7628C7 63.7397 7 63.7166 7 63.6934C7 63.6702 7 63.647 7 63.6237C7 63.6005 7 63.5771 7 63.5538C7 63.5304 7 63.507 7 63.4835C7 63.46 7 63.4365 7 63.4129C7 63.3893 7 63.3657 7 63.342C7 63.3183 7 63.2946 7 63.2708C7 63.247 7 63.2232 7 63.1993C7 63.1754 7 63.1515 7 63.1275C7 63.1035 7 63.0794 7 63.0553C7 63.0312 7 63.0071 7 62.9829C7 62.9587 7 62.9344 7 62.9101C7 62.8858 7 62.8614 7 62.837C7 62.8126 7 62.7881 7 62.7636C7 62.739 7 62.7144 7 62.6898C7 62.6652 7 62.6405 7 62.6157C7 62.591 7 62.5662 7 62.5413C7 62.5165 7 62.4916 7 62.4666C7 62.4416 7 62.4166 7 62.3915C7 62.3664 7 62.3413 7 62.3161C7 62.2909 7 62.2657 7 62.2404C7 62.2151 7 62.1897 7 62.1643C7 62.1389 7 62.1134 7 62.0879C7 62.0623 7 62.0368 7 62.0111C7 61.9855 7 61.9598 7 61.934C7 61.9083 7 61.8825 7 61.8566C7 61.8307 7 61.8048 7 61.7788C7 61.7528 7 61.7268 7 61.7006C7 61.6745 7 61.6484 7 61.6222C7 61.5959 7 61.5697 7 61.5433C7 61.517 7 61.4906 7 61.4641C7 61.4377 7 61.4112 7 61.3846C7 61.358 7 61.3314 7 61.3047C7 61.278 7 61.2512 7 61.2244C7 61.1976 7 61.1707 7 61.1438C7 61.1169 7 61.0899 7 61.0628C7 61.0358 7 61.0087 7 60.9815C7 60.9543 7 60.9271 7 60.8998C7 60.8725 7 60.8451 7 60.8177C7 60.7903 7 60.7628 7 60.7352C7 60.7077 7 60.6801 7 60.6524C7 60.6247 7 60.597 7 60.5692C7 60.5414 7 60.5136 7 60.4857C7 60.4577 7 60.4298 7 60.4017C7 60.3737 7 60.3456 7 60.3174C7 60.2892 7 60.261 7 60.2327C7 60.2044 7 60.176 7 60.1476C7 60.1192 7 60.0907 7 60.0622C7 60.0336 7 60.005 7 59.9763C7 59.9476 7 59.9189 7 59.8901C7 59.8613 7 59.8324 7 59.8034C7 59.7745 7 59.7455 7 59.7164C7 59.6874 7 59.6582 7 59.629C7 59.5998 7 59.5706 7 59.5412C7 59.5119 7 59.4825 7 59.453C7 59.4236 7 59.394 7 59.3644C7 59.3349 7 59.3052 7 59.2755C7 59.2457 7 59.2159 7 59.1861C7 59.1562 7 59.1263 7 59.0963C7 59.0663 7 59.0362 7 59.0061C7 58.9759 7 58.9457 7 58.9155C7 58.8852 7 58.8549 7 58.8245C7 58.7941 7 58.7636 7 58.733C7 58.7025 7 58.6719 7 58.6412C7 58.6105 7 58.5798 7 58.549C7 58.5182 7 58.4873 7 58.4563C7 58.4254 7 58.3943 7 58.3632C7 58.3321 7 58.301 7 58.2697C7 58.2385 7 58.2072 7 58.1758C7 58.1445 7 58.113 7 58.0815C7 58.05 7 58.0184 7 57.9867C7 57.9551 7 57.9234 7 57.8916C7 57.8598 7 57.8279 7 57.7959C7 57.764 7 57.732 7 57.6999C7 57.6678 7 57.6357 7 57.6034C7 57.5712 7 57.5389 7 57.5065C7 57.4742 7 57.4417 7 57.4092C7 57.3767 7 57.3441 7 57.3114C7 57.2788 7 57.246 7 57.2132C7 57.1804 7 57.1475 7 57.1146C7 57.0816 7 57.0486 7 57.0155C7 56.9824 7 56.9492 7 56.9159C7 56.8827 7 56.8494 7 56.816C7 56.7826 7 56.7491 7 56.7155C7 56.682 7 56.6484 7 56.6147C7 56.581 7 56.5472 7 56.5134C7 56.4795 7 56.4456 7 56.4116C7 56.3776 7 56.3435 7 56.3094C7 56.2752 7 56.241 7 56.2067C7 56.1724 7 56.138 7 56.1035C7 56.0691 7 56.0345 7 55.9999C7 55.9653 7 55.9306 7 55.8959C7 55.8611 7 55.8263 7 55.7914C7 55.7564 7 55.7214 7 55.6864C7 55.6513 7 55.6161 7 55.5809C7 55.5457 7 55.5104 7 55.475C7 55.4396 7 55.4042 7 55.3686C7 55.3331 7 55.2975 7 55.2618C7 55.2261 7 55.1903 7 55.1544C7 55.1186 7 55.0826 7 55.0466C7 55.0106 7 54.9745 7 54.9384C7 54.9022 7 54.8659 7 54.8296C7 54.7933 7 54.7568 7 54.7204C7 54.6839 7 54.6473 7 54.6106C7 54.574 7 54.5372 7 54.5004C7 54.4636 7 54.4267 7 54.3897C7 54.3528 7 54.3157 7 54.2786C7 54.2414 7 54.2042 7 54.1669C7 54.1296 7 54.0922 7 54.0547C7 54.0173 7 53.9797 7 53.9421C7 53.9045 7 53.8668 7 53.829C7 53.7912 7 53.7533 7 53.7153C7 53.6774 7 53.6393 7 53.6012C7 53.5631 7 53.5249 7 53.4866C7 53.4483 7 53.4099 7 53.3714C7 53.333 7 53.2944 7 53.2558C7 53.2172 7 53.1785 7 53.1397C7 53.1009 7 53.062 7 53.023C7 52.984 7 52.945 7 52.9059C7 52.8667 7 52.8275 7 52.7882C7 52.7489 7 52.7095 7 52.67C7 52.6305 7 52.591 7 52.5513C7 52.5117 7 52.4719 7 52.4321C7 52.3923 7 52.3524 7 52.3124C7 52.2724 7 52.2323 7 52.1922C7 52.152 7 52.1118 7 52.0714C7 52.0311 7 51.9906 7 51.9501C7 51.9096 7 51.869 7 51.8283C7 51.7876 7 51.7469 7 51.706C7 51.6651 7 51.6242 7 51.5831C7 51.5421 7 51.501 7 51.4598C7 51.4185 7 51.3772 7 51.3358C7 51.2944 7 51.253 7 51.2114C7 51.1698 7 51.1282 7 51.0864C7 51.0447 7 51.0028 7 50.9609C7 50.919 7 50.8769 7 50.8348C7 50.7927 7 50.7505 7 50.7082C7 50.6659 7 50.6236 7 50.5811C7 50.5386 7 50.4961 7 50.4534C7 50.4108 7 50.368 7 50.3252C7 50.2824 7 50.2394 7 50.1964C7 50.1534 7 50.1103 7 50.0671C7 50.0239 7 49.9806 7 49.9372C7 49.8938 7 49.8504 7 49.8068C7 49.7632 7 49.7196 7 49.6758C7 49.6321 7 49.5882 7 49.5443C7 49.5004 7 49.4563 7 49.4122C7 49.3681 7 49.3239 7 49.2795C7 49.2352 7 49.1908 7 49.1463C7 49.1018 7 49.0573 7 49.0126C7 48.9679 7 48.9231 7 48.8782C7 48.8334 7 48.7884 7 48.7433C7 48.6983 7 48.6531 7 48.6079C7 48.5626 7 48.5173 7 48.4718C7 48.4264 7 48.3808 7 48.3352C7 48.2896 7 48.2439 7 48.198C7 48.1522 7 48.1063 7 48.0603C7 48.0143 7 47.9681 7 47.9219C7 47.8757 7 47.8294 7 47.783C7 47.7366 7 47.6901 7 47.6435C7 47.5969 7 47.5502 7 47.5035C7 47.4567 7 47.4098 7 47.3628C7 47.3158 7 47.2687 7 47.2216C7 47.1744 7 47.1271 7 47.0797C7 47.0324 7 46.9849 7 46.9373C7 46.8897 7 46.8421 7 46.7943C7 46.7465 7 46.6987 7 46.6507C7 46.6027 7 46.5547 7 46.5065C7 46.4583 7 46.4101 7 46.3617C7 46.3133 7 46.2649 7 46.2163C7 46.1678 7 46.1191 7 46.0703C7 46.0216 7 45.9727 7 45.9237C7 45.8748 7 45.8257 7 45.7765C7 45.7274 7 45.6781 7 45.6287C7 45.5794 7 45.5299 7 45.4803C7 45.4308 7 45.3811 7 45.3313C7 45.2816 7 45.2317 7 45.1817C7 45.1317 7 45.0817 7 45.0315C7 44.9813 7 44.931 7 44.8806C7 44.8302 7 44.7798 7 44.7292C7 44.6786 7 44.6279 7 44.5771C7 44.5263 7 44.4754 7 44.4244C7 44.3734 7 44.3223 7 44.2711C7 44.2199 7 44.1685 7 44.1171C7 44.0657 7 44.0142 7 43.9626C7 43.9109 7 43.8592 7 43.8074C7 43.7555 7 43.7036 7 43.6516C7 43.5995 7 43.5474 7 43.4951C7 43.4428 7 43.3905 7 43.338C7 43.2856 7 43.233 7 43.1803C7 43.1276 7 43.0749 7 43.022C7 42.9691 7 42.9161 7 42.863C7 42.8099 7 42.7567 7 42.7034C7 42.6501 7 42.5966 7 42.5431C7 42.4896 7 42.4359 7 42.3822C7 42.3285 7 42.2746 7 42.2207C7 42.1667 7 42.1126 7 42.0585C7 42.0043 7 41.95 7 41.8956C7 41.8412 7 41.7867 7 41.7321C7 41.6775 7 41.6228 7 41.568C7 41.5132 7 41.4583 7 41.4032C7 41.3482 7 41.293 7 41.2378C7 41.1825 7 41.1272 7 41.0717C7 41.0162 7 40.9606 7 40.9049C7 40.8492 7 40.7934 7 40.7375C7 40.6816 7 40.6256 7 40.5694C7 40.5133 7 40.457 7 40.4007C7 40.3443 7 40.2879 7 40.2313C7 40.1747 7 40.118 7 40.0612C7 40.0044 7 39.9475 7 39.8905C7 39.8335 7 39.7763 7 39.7191C7 39.6618 7 39.6045 7 39.547C7 39.4895 7 39.4319 7 39.3742C7 39.3166 7 39.2587 7 39.2008C7 39.1429 7 39.0849 7 39.0267C7 38.9686 7 38.9103 7 38.8519C7 38.7936 7 38.7351 7 38.6765C7 38.6179 7 38.5592 7 38.5003C7 38.4415 7 38.3826 7 38.3235C7 38.2644 7 38.2053 7 38.146C7 38.0867 7 38.0273 7 37.9678C7 37.9083 7 37.8486 7 37.7889C7 37.7291 7 37.6693 7 37.6093C7 37.5493 7 37.4892 7 37.429C7 37.3688 7 37.3085 7 37.2481C7 37.1876 7 37.1271 7 37.0664C7 37.0057 7 36.945 7 36.884C7 36.8231 7 36.7621 7 36.701C7 36.6398 7 36.5786 7 36.5172C7 36.4558 7 36.3944 7 36.3328C7 36.2711 7 36.2094 7 36.1476C7 36.0857 7 36.0238 7 35.9617C7 35.8996 7 35.8374 7 35.7751C7 35.7128 7 35.6504 7 35.5878C7 35.5253 7 35.4626 7 35.3998C7 35.337 7 35.2741 7 35.2111C7 35.1481 7 35.0849 7 35.0217C7 34.9584 7 34.895 7 34.8315C7 34.768 7 34.7044 7 34.6406C7 34.5769 7 34.513 7 34.449C7 34.385 7 34.3209 7 34.2567C7 34.1925 7 34.1281 7 34.0637C7 33.9992 7 33.9346 7 33.8699C7 33.8052 7 33.7404 7 33.6754C7 33.6105 7 33.5454 7 33.4802C7 33.415 7 33.3497 7 33.2842C7 33.2188 7 33.1532 7 33.0875C7 33.0219 7 32.956 7 32.8901C7 32.8242 7 32.7581 7 32.692C7 32.6258 7 32.5595 7 32.4931C7 32.4266 7 32.3601 7 32.2934C7 32.2267 7 32.16 7 32.093C7 32.0261 7 31.9591 7 31.8919C7 31.8247 7 31.7575 7 31.69C7 31.6226 7 31.5551 7 31.4874C7 31.4198 7 31.352 7 31.2841C7 31.2161 7 31.1481 7 31.0799C7 31.0118 7 30.9435 7 30.8751C7 30.8067 7 30.7381 7 30.6695C7 30.6008 7 30.532 7 30.4631C7 30.3942 7 30.3251 7 30.2559C7 30.1868 7 30.1175 7 30.048C7 29.9786 7 29.9091 7 29.8394C7 29.7697 7 29.6999 7 29.63C7 29.56 7 29.49 7 29.4198C7 29.3496 7 29.2793 7 29.2088C7 29.1384 7 29.0678 7 28.9971C7 28.9264 7 28.8556 7 28.7846C7 28.7137 7 28.6426 7 28.5714C7 28.5001 7 28.4288 7 28.3573C7 28.2858 7 28.2142 7 28.1425C7 28.0708 7 27.9989 7 27.9269C7 27.8549 7 27.7828 7 27.7106C7 27.6383 7 27.5659 7 27.4934C7 27.4209 7 27.3483 7 27.2755C7 27.2027 7 27.1298 7 27.0568C7 26.9837 7 26.9106 7 26.8373C7 26.764 7 26.6905 7 26.617C7 26.5434 7 26.4697 7 26.3959C7 26.3221 7 26.2481 7 26.174C7 26.0999 7 26.0257 7 25.9514C7 25.877 7 25.8025 7 25.7279C7 25.6533 7 25.5786 7 25.5037C7 25.4288 7 25.3538 7 25.2786C7 25.2035 7 25.1282 7 25.0528C7 24.9774 7 24.9018 7 24.8261C7 24.7504 7 24.6746 7 24.5987C7 24.5227 7 24.4466 7 24.3704C7 24.2942 7 24.2178 7 24.1413C7 24.0648 7 23.9882 7 23.9115C7 23.8347 7 23.7578 7 23.6808C7 23.6037 7 23.5266 7 23.4493C7 23.372 7 23.2945 7 23.217C7 23.1394 7 23.0617 7 22.9838C7 22.906 7 22.828 7 22.7499C7 22.6718 7 22.5935 7 22.5151C7 22.4367 7 22.3582 7 22.2795C7 22.2009 7 22.1221 7 22.0431C7 21.9642 7 21.8851 7 21.8059C7 21.7267 7 21.6473 7 21.5678C7 21.4884 7 21.4087 7 21.329C7 21.2492 7 21.1693 7 21.0892C7 21.0092 7 20.929 7 20.8487C7 20.7684 7 20.6879 7 20.6073C7 20.5267 7 20.446 7 20.3651C7 20.2842 7 20.2032 7 20.122C7 20.0409 7 19.9596 7 19.8782C7 19.7967 7 19.7151 7 19.6334C7 19.5517 7 19.4698 7 19.3878C7 19.3058 7 19.2237 7 19.1414C7 19.0591 7 18.9767 7 18.8942C7 18.8116 7 18.7289 7 18.646C7 18.5632 7 18.4802 7 18.3971C7 18.314 7 18.2307 7 18.1473C7 18.0639 7 17.9803 7 17.8966C7 17.8129 7 17.7291 7 17.6451C7 17.5611 7 17.477 7 17.3927C7 17.3084 7 17.224 7 17.1395C7 17.0549 7 16.9702 7 16.8854C7 16.8005 7 16.7156 7 16.6304C7 16.5453 7 16.46 7 16.3746C7 16.2892 7 16.2036 7 16.1179C7 16.0322 7 15.9464 7 15.8604C7 15.7744 7 15.6883 7 15.602C7 15.5157 7 15.4293 7 15.3427C7 15.2561 7 15.1694 7 15.0825C7 14.9957 7 14.9086 7 14.8215C7 14.7343 7 14.647 7 14.5596C7 14.4721 7 14.3845 7 14.2968C7 14.209 7 14.1212 7 14.0331C7 13.9451 7 13.8569 7 13.7686C7 13.6802 7 13.5918 7 13.5031C7 13.4145 7 13.3258 7 13.2368C7 13.1479 7 13.0588 7 12.9696C7 12.8804 7 12.7911 7 12.7015C7 12.612 7 12.5224 7 12.4326C7 12.3428 7 12.2528 7 12.1627C7 12.0726 7 11.9823 7 11.8919C7 11.8015 7 11.711 7 11.6203C7 11.5296 7 11.4387 7 11.3477C7 11.2567 7 11.1656 7 11.0743C7 10.983 7 10.8915 7 10.7999C7 10.7083 7 10.6166 7 10.5247C7 10.4328 7 10.3407 7 10.2485C7 10.1563 7 10.064 7 9.97145C7 9.87894 7 9.78629 7 9.69348C7 9.60067 7 9.50771 7 9.4146C7 9.32149 7 9.22823 7 9.13481C7 9.0414 7 8.94783 7 8.85411C7 8.76039 7 8.66652 7 8.57249C7 8.47847 7 8.38429 7 8.28996C7 8.19563 7 8.10114 7 8.00651C7 7.91187 7 7.81708 7 7.72214C7 7.62719 7 7.5321 7 7.43685C7 7.3416 7 7.24619 7 7.15063C7 7.05507 7 6.95936 7 6.86349C7 6.76763 7 6.6716 7 6.57543C7 6.47925 7 6.38292 7 6.28643C7 6.18995 7 6.09331 7 5.99651C7 5.89971 7 5.80276 7 5.70565C7 5.60855 7 5.51128 7 5.41386C7 5.31644 7 5.21887 7 5.12114C7 5.02341 7 4.92552 7 4.82748C7 4.72943 7 4.63123 7 4.53288C7 4.43452 7 4.33601 7 4.23733C7 4.13866 7 4.03984 7 3.94085C7 3.84187 7 3.74272 7 3.64342C7 3.54412 7 3.44466 7 3.34505C7 3.24543 7 3.14566 7 3.04573C7 2.94579 7 2.8457 7 2.74546C7 2.64521 7 2.5448 7 2.44423C7 2.34367 7 2.24294 7 2.14206C7 2.04117 7 1.94013 7 1.83893C7 1.73772 7 1.63636 7 1.53484C7 1.43332 7 1.33164 7 1.2298C7 1.12795 7 1.02595 7 0.923792C7 0.82163 7 0.719308 7 0.616825C7 0.514343 7 0.411699 7 0.308895C7 0.206091 7 0.103126 7 4.37114e-08L5 -4.37114e-08Z" fill="#4100CB"/>
</svg>
