<svg width="189" height="12" viewBox="0 0 189 12" fill="none" xmlns="http://www.w3.org/2000/svg">
<path d="M189 6L179 0.226497V11.7735L189 6ZM0 7C0.298615 7 0.596658 7 0.89413 7C1.1916 7 1.4885 7 1.78484 7C2.08117 7 2.37693 7 2.67213 7C2.96732 7 3.26195 7 3.55601 7C3.85006 7 4.14356 7 4.43648 7C4.72941 7 5.02177 7 5.31357 7C5.60537 7 5.8966 7 6.18727 7C6.47794 7 6.76804 7 7.05759 7C7.34713 7 7.63612 7 7.92454 7C8.21296 7 8.50082 7 8.78812 7C9.07543 7 9.36217 7 9.64835 7C9.93454 7 10.2202 7 10.5052 7C10.7903 7 11.0748 7 11.3588 7C11.6427 7 11.9261 7 12.209 7C12.4918 7 12.7741 7 13.0559 7C13.3376 7 13.6188 7 13.8994 7C14.1801 7 14.4602 7 14.7397 7C15.0192 7 15.2982 7 15.5767 7C15.8551 7 16.133 7 16.4103 7C16.6877 7 16.9645 7 17.2407 7C17.5169 7 17.7926 7 18.0678 7C18.3429 7 18.6176 7 18.8916 7C19.1657 7 19.4392 7 19.7122 7C19.9852 7 20.2576 7 20.5295 7C20.8014 7 21.0727 7 21.3435 7C21.6144 7 21.8846 7 22.1544 7C22.4241 7 22.6933 7 22.9619 7C23.2306 7 23.4987 7 23.7663 7C24.0339 7 24.3009 7 24.5674 7C24.834 7 25.0999 7 25.3654 7C25.6308 7 25.8957 7 26.1601 7C26.4245 7 26.6883 7 26.9516 7C27.2149 7 27.4777 7 27.74 7C28.0022 7 28.264 7 28.5251 7C28.7863 7 29.047 7 29.3071 7C29.5673 7 29.8269 7 30.086 7C30.3451 7 30.6036 7 30.8616 7C31.1197 7 31.3772 7 31.6342 7C31.8911 7 32.1476 7 32.4035 7C32.6595 7 32.9149 7 33.1698 7C33.4247 7 33.6791 7 33.9329 7C34.1868 7 34.4401 7 34.6929 7C34.9457 7 35.198 7 35.4498 7C35.7016 7 35.9529 7 36.2036 7C36.4544 7 36.7046 7 36.9543 7C37.204 7 37.4532 7 37.7019 7C37.9506 7 38.1988 7 38.4464 7C38.6941 7 38.9413 7 39.1879 7C39.4345 7 39.6807 7 39.9263 7C40.1719 7 40.417 7 40.6616 7C40.9062 7 41.1503 7 41.3939 7C41.6375 7 41.8806 7 42.1232 7C42.3657 7 42.6078 7 42.8494 7C43.0909 7 43.332 7 43.5725 7C43.8131 7 44.0532 7 44.2927 7C44.5323 7 44.7713 7 45.0099 7C45.2484 7 45.4865 7 45.724 7C45.9616 7 46.1986 7 46.4352 7C46.6717 7 46.9078 7 47.1433 7C47.3789 7 47.614 7 47.8485 7C48.0831 7 48.3172 7 48.5507 7C48.7843 7 49.0174 7 49.25 7C49.4826 7 49.7147 7 49.9463 7C50.1779 7 50.409 7 50.6396 7C50.8702 7 51.1004 7 51.33 7C51.5596 7 51.7888 7 52.0175 7C52.2461 7 52.4743 7 52.702 7C52.9297 7 53.1569 7 53.3836 7C53.6103 7 53.8366 7 54.0623 7C54.2881 7 54.5133 7 54.7381 7C54.9629 7 55.1872 7 55.411 7C55.6348 7 55.8582 7 56.081 7C56.3039 7 56.5263 7 56.7482 7C56.9701 7 57.1915 7 57.4124 7C57.6334 7 57.8538 7 58.0738 7C58.2938 7 58.5133 7 58.7324 7C58.9514 7 59.17 7 59.388 7C59.6061 7 59.8237 7 60.0409 7C60.258 7 60.4747 7 60.6909 7C60.9071 7 61.1228 7 61.3381 7C61.5533 7 61.7681 7 61.9824 7C62.1967 7 62.4106 7 62.624 7C62.8374 7 63.0503 7 63.2627 7C63.4752 7 63.6871 7 63.8987 7C64.1102 7 64.3212 7 64.5318 7C64.7424 7 64.9525 7 65.1622 7C65.3719 7 65.5811 7 65.7898 7C65.9985 7 66.2068 7 66.4146 7C66.6225 7 66.8298 7 67.0367 7C67.2436 7 67.4501 7 67.656 7C67.862 7 68.0675 7 68.2726 7C68.4777 7 68.6823 7 68.8865 7C69.0906 7 69.2943 7 69.4976 7C69.7008 7 69.9036 7 70.106 7C70.3083 7 70.5102 7 70.7117 7C70.9131 7 71.1141 7 71.3146 7C71.5152 7 71.7153 7 71.9149 7C72.1146 7 72.3138 7 72.5125 7C72.7113 7 72.9096 7 73.1074 7C73.3053 7 73.5027 7 73.6997 7C73.8966 7 74.0932 7 74.2892 7C74.4853 7 74.681 7 74.8761 7C75.0713 7 75.2661 7 75.4604 7C75.6547 7 75.8486 7 76.042 7C76.2355 7 76.4284 7 76.621 7C76.8136 7 77.0057 7 77.1973 7C77.389 7 77.5803 7 77.7711 7C77.9619 7 78.1523 7 78.3422 7C78.5321 7 78.7216 7 78.9107 7C79.0998 7 79.2884 7 79.4766 7C79.6648 7 79.8526 7 80.0399 7C80.2273 7 80.4142 7 80.6007 7C80.7872 7 80.9732 7 81.1588 7C81.3445 7 81.5297 7 81.7144 7C81.8992 7 82.0835 7 82.2675 7C82.4514 7 82.6349 7 82.818 7C83.001 7 83.1837 7 83.3659 7C83.5481 7 83.7299 7 83.9113 7C84.0927 7 84.2736 7 84.4542 7C84.6347 7 84.8148 7 84.9945 7C85.1742 7 85.3535 7 85.5324 7C85.7112 7 85.8897 7 86.0677 7C86.2457 7 86.4233 7 86.6005 7C86.7777 7 86.9545 7 87.1309 7C87.3072 7 87.4832 7 87.6587 7C87.8343 7 88.0094 7 88.1841 7C88.3588 7 88.5331 7 88.707 7C88.8809 7 89.0544 7 89.2275 7C89.4006 7 89.5732 7 89.7455 7C89.9178 7 90.0896 7 90.2611 7C90.4325 7 90.6035 7 90.7742 7C90.9448 7 91.115 7 91.2849 7C91.4547 7 91.6241 7 91.7931 7C91.9622 7 92.1308 7 92.299 7C92.4672 7 92.635 7 92.8024 7C92.9699 7 93.1369 7 93.3035 7C93.4701 7 93.6363 7 93.8022 7C93.968 7 94.1334 7 94.2984 7C94.4635 7 94.6281 7 94.7923 7C94.9566 7 95.1204 7 95.2839 7C95.4473 7 95.6104 7 95.773 7C95.9357 7 96.098 7 96.2598 7C96.4217 7 96.5832 7 96.7443 7C96.9054 7 97.0661 7 97.2264 7C97.3868 7 97.5467 7 97.7063 7C97.8658 7 98.025 7 98.1837 7C98.3425 7 98.5009 7 98.6589 7C98.8169 7 98.9745 7 99.1318 7C99.289 7 99.4458 7 99.6023 7C99.7588 7 99.9149 7 100.071 7C100.226 7 100.382 7 100.537 7C100.692 7 100.846 7 101 7C101.154 7 101.308 7 101.462 7C101.615 7 101.768 7 101.921 7C102.074 7 102.226 7 102.378 7C102.53 7 102.681 7 102.832 7C102.984 7 103.134 7 103.285 7C103.435 7 103.585 7 103.735 7C103.885 7 104.034 7 104.183 7C104.332 7 104.481 7 104.629 7C104.777 7 104.925 7 105.072 7C105.22 7 105.367 7 105.514 7C105.661 7 105.807 7 105.953 7C106.099 7 106.245 7 106.39 7C106.535 7 106.68 7 106.825 7C106.969 7 107.114 7 107.257 7C107.401 7 107.545 7 107.688 7C107.831 7 107.974 7 108.116 7C108.259 7 108.401 7 108.542 7C108.684 7 108.825 7 108.966 7C109.107 7 109.248 7 109.388 7C109.529 7 109.669 7 109.808 7C109.948 7 110.087 7 110.226 7C110.365 7 110.503 7 110.641 7C110.779 7 110.917 7 111.055 7C111.192 7 111.329 7 111.466 7C111.603 7 111.739 7 111.875 7C112.011 7 112.147 7 112.283 7C112.418 7 112.553 7 112.688 7C112.822 7 112.957 7 113.091 7C113.225 7 113.358 7 113.492 7C113.625 7 113.758 7 113.891 7C114.023 7 114.156 7 114.288 7C114.42 7 114.551 7 114.683 7C114.814 7 114.945 7 115.075 7C115.206 7 115.336 7 115.466 7C115.596 7 115.726 7 115.855 7C115.984 7 116.113 7 116.242 7C116.371 7 116.499 7 116.627 7C116.755 7 116.882 7 117.01 7C117.137 7 117.264 7 117.391 7C117.517 7 117.644 7 117.77 7C117.896 7 118.021 7 118.146 7C118.272 7 118.397 7 118.521 7C118.646 7 118.771 7 118.895 7C119.019 7 119.142 7 119.266 7C119.389 7 119.512 7 119.635 7C119.758 7 119.88 7 120.002 7C120.124 7 120.246 7 120.367 7C120.489 7 120.61 7 120.731 7C120.852 7 120.972 7 121.092 7C121.213 7 121.332 7 121.452 7C121.572 7 121.691 7 121.81 7C121.929 7 122.047 7 122.166 7C122.284 7 122.402 7 122.52 7C122.637 7 122.755 7 122.872 7C122.989 7 123.106 7 123.222 7C123.338 7 123.455 7 123.57 7C123.686 7 123.802 7 123.917 7C124.032 7 124.147 7 124.262 7C124.376 7 124.491 7 124.605 7C124.719 7 124.832 7 124.946 7C125.059 7 125.172 7 125.285 7C125.398 7 125.51 7 125.623 7C125.735 7 125.847 7 125.958 7C126.07 7 126.181 7 126.292 7C126.403 7 126.514 7 126.624 7C126.735 7 126.845 7 126.955 7C127.065 7 127.174 7 127.283 7C127.393 7 127.502 7 127.61 7C127.719 7 127.827 7 127.935 7C128.043 7 128.151 7 128.259 7C128.366 7 128.473 7 128.58 7C128.687 7 128.794 7 128.9 7C129.007 7 129.113 7 129.218 7C129.324 7 129.43 7 129.535 7C129.64 7 129.745 7 129.85 7C129.954 7 130.059 7 130.163 7C130.267 7 130.371 7 130.474 7C130.578 7 130.681 7 130.784 7C130.887 7 130.989 7 131.092 7C131.194 7 131.296 7 131.398 7C131.5 7 131.602 7 131.703 7C131.804 7 131.905 7 132.006 7C132.107 7 132.207 7 132.307 7C132.408 7 132.508 7 132.607 7C132.707 7 132.806 7 132.905 7C133.004 7 133.103 7 133.202 7C133.3 7 133.399 7 133.497 7C133.595 7 133.693 7 133.79 7C133.888 7 133.985 7 134.082 7C134.179 7 134.276 7 134.372 7C134.468 7 134.565 7 134.661 7C134.757 7 134.852 7 134.948 7C135.043 7 135.138 7 135.233 7C135.328 7 135.423 7 135.517 7C135.611 7 135.705 7 135.799 7C135.893 7 135.987 7 136.08 7C136.173 7 136.266 7 136.359 7C136.452 7 136.545 7 136.637 7C136.729 7 136.821 7 136.913 7C137.005 7 137.097 7 137.188 7C137.279 7 137.37 7 137.461 7C137.552 7 137.642 7 137.733 7C137.823 7 137.913 7 138.003 7C138.093 7 138.182 7 138.272 7C138.361 7 138.45 7 138.539 7C138.628 7 138.716 7 138.805 7C138.893 7 138.981 7 139.069 7C139.157 7 139.244 7 139.332 7C139.419 7 139.506 7 139.593 7C139.68 7 139.767 7 139.853 7C139.94 7 140.026 7 140.112 7C140.198 7 140.283 7 140.369 7C140.454 7 140.54 7 140.625 7C140.71 7 140.794 7 140.879 7C140.964 7 141.048 7 141.132 7C141.216 7 141.3 7 141.384 7C141.467 7 141.551 7 141.634 7C141.717 7 141.8 7 141.882 7C141.965 7 142.048 7 142.13 7C142.212 7 142.294 7 142.376 7C142.458 7 142.539 7 142.621 7C142.702 7 142.783 7 142.864 7C142.945 7 143.026 7 143.106 7C143.187 7 143.267 7 143.347 7C143.427 7 143.507 7 143.586 7C143.666 7 143.745 7 143.824 7C143.903 7 143.982 7 144.061 7C144.14 7 144.218 7 144.296 7C144.375 7 144.453 7 144.531 7C144.609 7 144.686 7 144.764 7C144.841 7 144.918 7 144.995 7C145.072 7 145.149 7 145.226 7C145.302 7 145.379 7 145.455 7C145.531 7 145.607 7 145.683 7C145.758 7 145.834 7 145.909 7C145.984 7 146.06 7 146.135 7C146.209 7 146.284 7 146.359 7C146.433 7 146.507 7 146.582 7C146.656 7 146.73 7 146.803 7C146.877 7 146.95 7 147.024 7C147.097 7 147.17 7 147.243 7C147.316 7 147.389 7 147.461 7C147.534 7 147.606 7 147.678 7C147.75 7 147.822 7 147.894 7C147.966 7 148.037 7 148.108 7C148.18 7 148.251 7 148.322 7C148.393 7 148.464 7 148.534 7C148.605 7 148.675 7 148.745 7C148.816 7 148.886 7 148.955 7C149.025 7 149.095 7 149.164 7C149.234 7 149.303 7 149.372 7C149.441 7 149.51 7 149.579 7C149.647 7 149.716 7 149.784 7C149.852 7 149.921 7 149.989 7C150.057 7 150.124 7 150.192 7C150.26 7 150.327 7 150.394 7C150.461 7 150.528 7 150.595 7C150.662 7 150.729 7 150.795 7C150.862 7 150.928 7 150.995 7C151.061 7 151.127 7 151.193 7C151.258 7 151.324 7 151.389 7C151.455 7 151.52 7 151.585 7C151.651 7 151.715 7 151.78 7C151.845 7 151.91 7 151.974 7C152.039 7 152.103 7 152.167 7C152.231 7 152.295 7 152.359 7C152.423 7 152.486 7 152.55 7C152.613 7 152.676 7 152.74 7C152.803 7 152.866 7 152.928 7C152.991 7 153.054 7 153.116 7C153.179 7 153.241 7 153.303 7C153.365 7 153.427 7 153.489 7C153.551 7 153.613 7 153.674 7C153.736 7 153.797 7 153.858 7C153.92 7 153.981 7 154.042 7C154.102 7 154.163 7 154.224 7C154.284 7 154.345 7 154.405 7C154.465 7 154.525 7 154.585 7C154.645 7 154.705 7 154.765 7C154.825 7 154.884 7 154.943 7C155.003 7 155.062 7 155.121 7C155.18 7 155.239 7 155.298 7C155.357 7 155.415 7 155.474 7C155.532 7 155.591 7 155.649 7C155.707 7 155.765 7 155.823 7C155.881 7 155.939 7 155.996 7C156.054 7 156.111 7 156.169 7C156.226 7 156.283 7 156.34 7C156.398 7 156.454 7 156.511 7C156.568 7 156.625 7 156.681 7C156.738 7 156.794 7 156.85 7C156.907 7 156.963 7 157.019 7C157.075 7 157.131 7 157.186 7C157.242 7 157.298 7 157.353 7C157.409 7 157.464 7 157.519 7C157.574 7 157.629 7 157.684 7C157.739 7 157.794 7 157.849 7C157.904 7 157.958 7 158.012 7C158.067 7 158.121 7 158.175 7C158.23 7 158.284 7 158.338 7C158.392 7 158.445 7 158.499 7C158.553 7 158.606 7 158.66 7C158.713 7 158.767 7 158.82 7C158.873 7 158.926 7 158.979 7C159.032 7 159.085 7 159.138 7C159.19 7 159.243 7 159.295 7C159.348 7 159.4 7 159.453 7C159.505 7 159.557 7 159.609 7C159.661 7 159.713 7 159.765 7C159.817 7 159.869 7 159.92 7C159.972 7 160.023 7 160.075 7C160.126 7 160.177 7 160.228 7C160.28 7 160.331 7 160.382 7C160.433 7 160.483 7 160.534 7C160.585 7 160.636 7 160.686 7C160.737 7 160.787 7 160.837 7C160.888 7 160.938 7 160.988 7C161.038 7 161.088 7 161.138 7C161.188 7 161.238 7 161.288 7C161.337 7 161.387 7 161.436 7C161.486 7 161.535 7 161.585 7C161.634 7 161.683 7 161.732 7C161.782 7 161.831 7 161.88 7C161.928 7 161.977 7 162.026 7C162.075 7 162.124 7 162.172 7C162.221 7 162.269 7 162.318 7C162.366 7 162.414 7 162.463 7C162.511 7 162.559 7 162.607 7C162.655 7 162.703 7 162.751 7C162.799 7 162.846 7 162.894 7C162.942 7 162.989 7 163.037 7C163.085 7 163.132 7 163.179 7C163.227 7 163.274 7 163.321 7C163.368 7 163.415 7 163.463 7C163.51 7 163.557 7 163.603 7C163.65 7 163.697 7 163.744 7C163.791 7 163.837 7 163.884 7C163.93 7 163.977 7 164.023 7C164.07 7 164.116 7 164.162 7C164.209 7 164.255 7 164.301 7C164.347 7 164.393 7 164.439 7C164.485 7 164.531 7 164.577 7C164.623 7 164.669 7 164.714 7C164.76 7 164.806 7 164.851 7C164.897 7 164.942 7 164.988 7C165.033 7 165.078 7 165.124 7C165.169 7 165.214 7 165.26 7C165.305 7 165.35 7 165.395 7C165.44 7 165.485 7 165.53 7C165.575 7 165.62 7 165.665 7C165.709 7 165.754 7 165.799 7C165.844 7 165.888 7 165.933 7C165.977 7 166.022 7 166.066 7C166.111 7 166.155 7 166.2 7C166.244 7 166.288 7 166.332 7C166.377 7 166.421 7 166.465 7C166.509 7 166.553 7 166.597 7C166.641 7 166.685 7 166.729 7C166.773 7 166.817 7 166.861 7C166.905 7 166.949 7 166.993 7C167.036 7 167.08 7 167.124 7C167.167 7 167.211 7 167.255 7C167.298 7 167.342 7 167.385 7C167.429 7 167.472 7 167.515 7C167.559 7 167.602 7 167.646 7C167.689 7 167.732 7 167.775 7C167.819 7 167.862 7 167.905 7C167.948 7 167.991 7 168.034 7C168.077 7 168.121 7 168.164 7C168.207 7 168.25 7 168.293 7C168.335 7 168.378 7 168.421 7C168.464 7 168.507 7 168.55 7C168.593 7 168.635 7 168.678 7C168.721 7 168.764 7 168.806 7C168.849 7 168.892 7 168.934 7C168.977 7 169.02 7 169.062 7C169.105 7 169.147 7 169.19 7C169.233 7 169.275 7 169.318 7C169.36 7 169.403 7 169.445 7C169.487 7 169.53 7 169.572 7C169.615 7 169.657 7 169.699 7C169.742 7 169.784 7 169.826 7C169.869 7 169.911 7 169.953 7C169.996 7 170.038 7 170.08 7C170.122 7 170.165 7 170.207 7C170.249 7 170.291 7 170.334 7C170.376 7 170.418 7 170.46 7C170.502 7 170.544 7 170.587 7C170.629 7 170.671 7 170.713 7C170.755 7 170.797 7 170.839 7C170.881 7 170.924 7 170.966 7C171.008 7 171.05 7 171.092 7C171.134 7 171.176 7 171.218 7C171.26 7 171.302 7 171.344 7C171.386 7 171.428 7 171.471 7C171.513 7 171.555 7 171.597 7C171.639 7 171.681 7 171.723 7C171.765 7 171.807 7 171.849 7C171.891 7 171.933 7 171.975 7C172.017 7 172.059 7 172.101 7C172.143 7 172.186 7 172.228 7C172.27 7 172.312 7 172.354 7C172.396 7 172.438 7 172.48 7C172.522 7 172.564 7 172.607 7C172.649 7 172.691 7 172.733 7C172.775 7 172.817 7 172.859 7C172.902 7 172.944 7 172.986 7C173.028 7 173.07 7 173.113 7C173.155 7 173.197 7 173.239 7C173.282 7 173.324 7 173.366 7C173.408 7 173.451 7 173.493 7C173.535 7 173.578 7 173.62 7C173.662 7 173.705 7 173.747 7C173.79 7 173.832 7 173.875 7C173.917 7 173.959 7 174.002 7C174.044 7 174.087 7 174.129 7C174.172 7 174.215 7 174.257 7C174.3 7 174.342 7 174.385 7C174.428 7 174.47 7 174.513 7C174.556 7 174.598 7 174.641 7C174.684 7 174.727 7 174.77 7C174.812 7 174.855 7 174.898 7C174.941 7 174.984 7 175.027 7C175.07 7 175.113 7 175.156 7C175.199 7 175.242 7 175.285 7C175.328 7 175.371 7 175.414 7C175.458 7 175.501 7 175.544 7C175.587 7 175.631 7 175.674 7C175.717 7 175.761 7 175.804 7C175.847 7 175.891 7 175.934 7C175.978 7 176.021 7 176.065 7C176.108 7 176.152 7 176.196 7C176.239 7 176.283 7 176.327 7C176.371 7 176.414 7 176.458 7C176.502 7 176.546 7 176.59 7C176.634 7 176.678 7 176.722 7C176.766 7 176.81 7 176.854 7C176.898 7 176.942 7 176.987 7C177.031 7 177.075 7 177.12 7C177.164 7 177.208 7 177.253 7C177.297 7 177.342 7 177.386 7C177.431 7 177.476 7 177.52 7C177.565 7 177.61 7 177.655 7C177.699 7 177.744 7 177.789 7C177.834 7 177.879 7 177.924 7C177.969 7 178.014 7 178.06 7C178.105 7 178.15 7 178.195 7C178.241 7 178.286 7 178.331 7C178.377 7 178.422 7 178.468 7C178.513 7 178.559 7 178.605 7C178.65 7 178.696 7 178.742 7C178.788 7 178.834 7 178.88 7C178.926 7 178.972 7 179.018 7C179.064 7 179.11 7 179.157 7C179.203 7 179.249 7 179.296 7C179.342 7 179.388 7 179.435 7C179.482 7 179.528 7 179.575 7C179.622 7 179.669 7 179.715 7C179.762 7 179.809 7 179.856 7C179.903 7 179.95 7 179.998 7V5C179.95 5 179.903 5 179.856 5C179.809 5 179.762 5 179.715 5C179.669 5 179.622 5 179.575 5C179.528 5 179.482 5 179.435 5C179.388 5 179.342 5 179.296 5C179.249 5 179.203 5 179.157 5C179.11 5 179.064 5 179.018 5C178.972 5 178.926 5 178.88 5C178.834 5 178.788 5 178.742 5C178.696 5 178.65 5 178.605 5C178.559 5 178.513 5 178.468 5C178.422 5 178.377 5 178.331 5C178.286 5 178.241 5 178.195 5C178.15 5 178.105 5 178.06 5C178.014 5 177.969 5 177.924 5C177.879 5 177.834 5 177.789 5C177.744 5 177.699 5 177.655 5C177.61 5 177.565 5 177.52 5C177.476 5 177.431 5 177.386 5C177.342 5 177.297 5 177.253 5C177.208 5 177.164 5 177.12 5C177.075 5 177.031 5 176.987 5C176.942 5 176.898 5 176.854 5C176.81 5 176.766 5 176.722 5C176.678 5 176.634 5 176.59 5C176.546 5 176.502 5 176.458 5C176.414 5 176.371 5 176.327 5C176.283 5 176.239 5 176.196 5C176.152 5 176.108 5 176.065 5C176.021 5 175.978 5 175.934 5C175.891 5 175.847 5 175.804 5C175.761 5 175.717 5 175.674 5C175.631 5 175.587 5 175.544 5C175.501 5 175.458 5 175.414 5C175.371 5 175.328 5 175.285 5C175.242 5 175.199 5 175.156 5C175.113 5 175.07 5 175.027 5C174.984 5 174.941 5 174.898 5C174.855 5 174.812 5 174.77 5C174.727 5 174.684 5 174.641 5C174.598 5 174.556 5 174.513 5C174.47 5 174.428 5 174.385 5C174.342 5 174.3 5 174.257 5C174.215 5 174.172 5 174.129 5C174.087 5 174.044 5 174.002 5C173.959 5 173.917 5 173.875 5C173.832 5 173.79 5 173.747 5C173.705 5 173.662 5 173.62 5C173.578 5 173.535 5 173.493 5C173.451 5 173.408 5 173.366 5C173.324 5 173.282 5 173.239 5C173.197 5 173.155 5 173.113 5C173.07 5 173.028 5 172.986 5C172.944 5 172.902 5 172.859 5C172.817 5 172.775 5 172.733 5C172.691 5 172.649 5 172.607 5C172.564 5 172.522 5 172.48 5C172.438 5 172.396 5 172.354 5C172.312 5 172.27 5 172.228 5C172.186 5 172.143 5 172.101 5C172.059 5 172.017 5 171.975 5C171.933 5 171.891 5 171.849 5C171.807 5 171.765 5 171.723 5C171.681 5 171.639 5 171.597 5C171.555 5 171.513 5 171.471 5C171.428 5 171.386 5 171.344 5C171.302 5 171.26 5 171.218 5C171.176 5 171.134 5 171.092 5C171.05 5 171.008 5 170.966 5C170.924 5 170.881 5 170.839 5C170.797 5 170.755 5 170.713 5C170.671 5 170.629 5 170.587 5C170.544 5 170.502 5 170.46 5C170.418 5 170.376 5 170.334 5C170.291 5 170.249 5 170.207 5C170.165 5 170.122 5 170.08 5C170.038 5 169.996 5 169.953 5C169.911 5 169.869 5 169.826 5C169.784 5 169.742 5 169.699 5C169.657 5 169.615 5 169.572 5C169.53 5 169.487 5 169.445 5C169.403 5 169.36 5 169.318 5C169.275 5 169.233 5 169.19 5C169.147 5 169.105 5 169.062 5C169.02 5 168.977 5 168.934 5C168.892 5 168.849 5 168.806 5C168.764 5 168.721 5 168.678 5C168.635 5 168.593 5 168.55 5C168.507 5 168.464 5 168.421 5C168.378 5 168.335 5 168.293 5C168.25 5 168.207 5 168.164 5C168.121 5 168.077 5 168.034 5C167.991 5 167.948 5 167.905 5C167.862 5 167.819 5 167.775 5C167.732 5 167.689 5 167.646 5C167.602 5 167.559 5 167.515 5C167.472 5 167.429 5 167.385 5C167.342 5 167.298 5 167.255 5C167.211 5 167.167 5 167.124 5C167.08 5 167.036 5 166.993 5C166.949 5 166.905 5 166.861 5C166.817 5 166.773 5 166.729 5C166.685 5 166.641 5 166.597 5C166.553 5 166.509 5 166.465 5C166.421 5 166.377 5 166.332 5C166.288 5 166.244 5 166.2 5C166.155 5 166.111 5 166.066 5C166.022 5 165.977 5 165.933 5C165.888 5 165.844 5 165.799 5C165.754 5 165.709 5 165.665 5C165.62 5 165.575 5 165.53 5C165.485 5 165.44 5 165.395 5C165.35 5 165.305 5 165.26 5C165.214 5 165.169 5 165.124 5C165.078 5 165.033 5 164.988 5C164.942 5 164.897 5 164.851 5C164.806 5 164.76 5 164.714 5C164.669 5 164.623 5 164.577 5C164.531 5 164.485 5 164.439 5C164.393 5 164.347 5 164.301 5C164.255 5 164.209 5 164.162 5C164.116 5 164.07 5 164.023 5C163.977 5 163.93 5 163.884 5C163.837 5 163.791 5 163.744 5C163.697 5 163.65 5 163.603 5C163.557 5 163.51 5 163.463 5C163.415 5 163.368 5 163.321 5C163.274 5 163.227 5 163.179 5C163.132 5 163.085 5 163.037 5C162.989 5 162.942 5 162.894 5C162.846 5 162.799 5 162.751 5C162.703 5 162.655 5 162.607 5C162.559 5 162.511 5 162.463 5C162.414 5 162.366 5 162.318 5C162.269 5 162.221 5 162.172 5C162.124 5 162.075 5 162.026 5C161.977 5 161.928 5 161.88 5C161.831 5 161.782 5 161.732 5C161.683 5 161.634 5 161.585 5C161.535 5 161.486 5 161.436 5C161.387 5 161.337 5 161.288 5C161.238 5 161.188 5 161.138 5C161.088 5 161.038 5 160.988 5C160.938 5 160.888 5 160.837 5C160.787 5 160.737 5 160.686 5C160.636 5 160.585 5 160.534 5C160.483 5 160.433 5 160.382 5C160.331 5 160.28 5 160.228 5C160.177 5 160.126 5 160.075 5C160.023 5 159.972 5 159.92 5C159.869 5 159.817 5 159.765 5C159.713 5 159.661 5 159.609 5C159.557 5 159.505 5 159.453 5C159.4 5 159.348 5 159.295 5C159.243 5 159.19 5 159.138 5C159.085 5 159.032 5 158.979 5C158.926 5 158.873 5 158.82 5C158.767 5 158.713 5 158.66 5C158.606 5 158.553 5 158.499 5C158.445 5 158.392 5 158.338 5C158.284 5 158.23 5 158.175 5C158.121 5 158.067 5 158.012 5C157.958 5 157.904 5 157.849 5C157.794 5 157.739 5 157.684 5C157.629 5 157.574 5 157.519 5C157.464 5 157.409 5 157.353 5C157.298 5 157.242 5 157.186 5C157.131 5 157.075 5 157.019 5C156.963 5 156.907 5 156.85 5C156.794 5 156.738 5 156.681 5C156.625 5 156.568 5 156.511 5C156.454 5 156.398 5 156.34 5C156.283 5 156.226 5 156.169 5C156.111 5 156.054 5 155.996 5C155.939 5 155.881 5 155.823 5C155.765 5 155.707 5 155.649 5C155.591 5 155.532 5 155.474 5C155.415 5 155.357 5 155.298 5C155.239 5 155.18 5 155.121 5C155.062 5 155.003 5 154.943 5C154.884 5 154.825 5 154.765 5C154.705 5 154.645 5 154.585 5C154.525 5 154.465 5 154.405 5C154.345 5 154.284 5 154.224 5C154.163 5 154.102 5 154.042 5C153.981 5 153.92 5 153.858 5C153.797 5 153.736 5 153.674 5C153.613 5 153.551 5 153.489 5C153.427 5 153.365 5 153.303 5C153.241 5 153.179 5 153.116 5C153.054 5 152.991 5 152.928 5C152.866 5 152.803 5 152.74 5C152.676 5 152.613 5 152.55 5C152.486 5 152.423 5 152.359 5C152.295 5 152.231 5 152.167 5C152.103 5 152.039 5 151.974 5C151.91 5 151.845 5 151.78 5C151.715 5 151.651 5 151.585 5C151.52 5 151.455 5 151.389 5C151.324 5 151.258 5 151.193 5C151.127 5 151.061 5 150.995 5C150.928 5 150.862 5 150.795 5C150.729 5 150.662 5 150.595 5C150.528 5 150.461 5 150.394 5C150.327 5 150.26 5 150.192 5C150.124 5 150.057 5 149.989 5C149.921 5 149.852 5 149.784 5C149.716 5 149.647 5 149.579 5C149.51 5 149.441 5 149.372 5C149.303 5 149.234 5 149.164 5C149.095 5 149.025 5 148.955 5C148.886 5 148.816 5 148.745 5C148.675 5 148.605 5 148.534 5C148.464 5 148.393 5 148.322 5C148.251 5 148.18 5 148.108 5C148.037 5 147.966 5 147.894 5C147.822 5 147.75 5 147.678 5C147.606 5 147.534 5 147.461 5C147.389 5 147.316 5 147.243 5C147.17 5 147.097 5 147.024 5C146.95 5 146.877 5 146.803 5C146.73 5 146.656 5 146.582 5C146.507 5 146.433 5 146.359 5C146.284 5 146.209 5 146.135 5C146.06 5 145.984 5 145.909 5C145.834 5 145.758 5 145.683 5C145.607 5 145.531 5 145.455 5C145.379 5 145.302 5 145.226 5C145.149 5 145.072 5 144.995 5C144.918 5 144.841 5 144.764 5C144.686 5 144.609 5 144.531 5C144.453 5 144.375 5 144.296 5C144.218 5 144.14 5 144.061 5C143.982 5 143.903 5 143.824 5C143.745 5 143.666 5 143.586 5C143.507 5 143.427 5 143.347 5C143.267 5 143.187 5 143.106 5C143.026 5 142.945 5 142.864 5C142.783 5 142.702 5 142.621 5C142.539 5 142.458 5 142.376 5C142.294 5 142.212 5 142.13 5C142.048 5 141.965 5 141.882 5C141.8 5 141.717 5 141.634 5C141.551 5 141.467 5 141.384 5C141.3 5 141.216 5 141.132 5C141.048 5 140.964 5 140.879 5C140.794 5 140.71 5 140.625 5C140.54 5 140.454 5 140.369 5C140.283 5 140.198 5 140.112 5C140.026 5 139.94 5 139.853 5C139.767 5 139.68 5 139.593 5C139.506 5 139.419 5 139.332 5C139.244 5 139.157 5 139.069 5C138.981 5 138.893 5 138.805 5C138.716 5 138.628 5 138.539 5C138.45 5 138.361 5 138.272 5C138.182 5 138.093 5 138.003 5C137.913 5 137.823 5 137.733 5C137.642 5 137.552 5 137.461 5C137.37 5 137.279 5 137.188 5C137.097 5 137.005 5 136.913 5C136.821 5 136.729 5 136.637 5C136.545 5 136.452 5 136.359 5C136.266 5 136.173 5 136.08 5C135.987 5 135.893 5 135.799 5C135.705 5 135.611 5 135.517 5C135.423 5 135.328 5 135.233 5C135.138 5 135.043 5 134.948 5C134.852 5 134.757 5 134.661 5C134.565 5 134.468 5 134.372 5C134.276 5 134.179 5 134.082 5C133.985 5 133.888 5 133.79 5C133.693 5 133.595 5 133.497 5C133.399 5 133.3 5 133.202 5C133.103 5 133.004 5 132.905 5C132.806 5 132.707 5 132.607 5C132.508 5 132.408 5 132.307 5C132.207 5 132.107 5 132.006 5C131.905 5 131.804 5 131.703 5C131.602 5 131.5 5 131.398 5C131.296 5 131.194 5 131.092 5C130.989 5 130.887 5 130.784 5C130.681 5 130.578 5 130.474 5C130.371 5 130.267 5 130.163 5C130.059 5 129.954 5 129.85 5C129.745 5 129.64 5 129.535 5C129.43 5 129.324 5 129.218 5C129.113 5 129.007 5 128.9 5C128.794 5 128.687 5 128.58 5C128.473 5 128.366 5 128.259 5C128.151 5 128.043 5 127.935 5C127.827 5 127.719 5 127.61 5C127.502 5 127.393 5 127.283 5C127.174 5 127.065 5 126.955 5C126.845 5 126.735 5 126.624 5C126.514 5 126.403 5 126.292 5C126.181 5 126.07 5 125.958 5C125.847 5 125.735 5 125.623 5C125.51 5 125.398 5 125.285 5C125.172 5 125.059 5 124.946 5C124.832 5 124.719 5 124.605 5C124.491 5 124.376 5 124.262 5C124.147 5 124.032 5 123.917 5C123.802 5 123.686 5 123.57 5C123.455 5 123.338 5 123.222 5C123.106 5 122.989 5 122.872 5C122.755 5 122.637 5 122.52 5C122.402 5 122.284 5 122.166 5C122.047 5 121.929 5 121.81 5C121.691 5 121.572 5 121.452 5C121.332 5 121.213 5 121.092 5C120.972 5 120.852 5 120.731 5C120.61 5 120.489 5 120.367 5C120.246 5 120.124 5 120.002 5C119.88 5 119.758 5 119.635 5C119.512 5 119.389 5 119.266 5C119.142 5 119.019 5 118.895 5C118.771 5 118.646 5 118.521 5C118.397 5 118.272 5 118.146 5C118.021 5 117.896 5 117.77 5C117.644 5 117.517 5 117.391 5C117.264 5 117.137 5 117.01 5C116.882 5 116.755 5 116.627 5C116.499 5 116.371 5 116.242 5C116.113 5 115.984 5 115.855 5C115.726 5 115.596 5 115.466 5C115.336 5 115.206 5 115.075 5C114.945 5 114.814 5 114.683 5C114.551 5 114.42 5 114.288 5C114.156 5 114.023 5 113.891 5C113.758 5 113.625 5 113.492 5C113.358 5 113.225 5 113.091 5C112.957 5 112.822 5 112.688 5C112.553 5 112.418 5 112.283 5C112.147 5 112.011 5 111.875 5C111.739 5 111.603 5 111.466 5C111.329 5 111.192 5 111.055 5C110.917 5 110.779 5 110.641 5C110.503 5 110.365 5 110.226 5C110.087 5 109.948 5 109.808 5C109.669 5 109.529 5 109.388 5C109.248 5 109.107 5 108.966 5C108.825 5 108.684 5 108.542 5C108.401 5 108.259 5 108.116 5C107.974 5 107.831 5 107.688 5C107.545 5 107.401 5 107.257 5C107.114 5 106.969 5 106.825 5C106.68 5 106.535 5 106.39 5C106.245 5 106.099 5 105.953 5C105.807 5 105.661 5 105.514 5C105.367 5 105.22 5 105.072 5C104.925 5 104.777 5 104.629 5C104.481 5 104.332 5 104.183 5C104.034 5 103.885 5 103.735 5C103.585 5 103.435 5 103.285 5C103.134 5 102.984 5 102.832 5C102.681 5 102.53 5 102.378 5C102.226 5 102.074 5 101.921 5C101.768 5 101.615 5 101.462 5C101.308 5 101.154 5 101 5C100.846 5 100.692 5 100.537 5C100.382 5 100.226 5 100.071 5C99.9149 5 99.7588 5 99.6023 5C99.4458 5 99.289 5 99.1318 5C98.9745 5 98.8169 5 98.6589 5C98.5009 5 98.3425 5 98.1837 5C98.025 5 97.8658 5 97.7063 5C97.5467 5 97.3868 5 97.2264 5C97.0661 5 96.9054 5 96.7443 5C96.5832 5 96.4217 5 96.2598 5C96.098 5 95.9357 5 95.773 5C95.6104 5 95.4473 5 95.2839 5C95.1204 5 94.9566 5 94.7923 5C94.6281 5 94.4635 5 94.2984 5C94.1334 5 93.968 5 93.8022 5C93.6363 5 93.4701 5 93.3035 5C93.1369 5 92.9699 5 92.8024 5C92.635 5 92.4672 5 92.299 5C92.1308 5 91.9622 5 91.7931 5C91.6241 5 91.4547 5 91.2849 5C91.115 5 90.9448 5 90.7742 5C90.6035 5 90.4325 5 90.2611 5C90.0896 5 89.9178 5 89.7455 5C89.5732 5 89.4006 5 89.2275 5C89.0544 5 88.8809 5 88.707 5C88.5331 5 88.3588 5 88.1841 5C88.0094 5 87.8343 5 87.6587 5C87.4832 5 87.3072 5 87.1309 5C86.9545 5 86.7777 5 86.6005 5C86.4233 5 86.2457 5 86.0677 5C85.8897 5 85.7112 5 85.5324 5C85.3535 5 85.1742 5 84.9945 5C84.8148 5 84.6347 5 84.4542 5C84.2736 5 84.0927 5 83.9113 5C83.7299 5 83.5481 5 83.3659 5C83.1837 5 83.001 5 82.818 5C82.6349 5 82.4514 5 82.2675 5C82.0835 5 81.8992 5 81.7144 5C81.5297 5 81.3445 5 81.1588 5C80.9732 5 80.7872 5 80.6007 5C80.4142 5 80.2273 5 80.0399 5C79.8526 5 79.6648 5 79.4766 5C79.2884 5 79.0998 5 78.9107 5C78.7216 5 78.5321 5 78.3422 5C78.1523 5 77.9619 5 77.7711 5C77.5803 5 77.389 5 77.1973 5C77.0057 5 76.8136 5 76.621 5C76.4284 5 76.2355 5 76.042 5C75.8486 5 75.6547 5 75.4604 5C75.2661 5 75.0713 5 74.8761 5C74.681 5 74.4853 5 74.2892 5C74.0932 5 73.8966 5 73.6997 5C73.5027 5 73.3053 5 73.1074 5C72.9096 5 72.7113 5 72.5125 5C72.3138 5 72.1146 5 71.9149 5C71.7153 5 71.5152 5 71.3146 5C71.1141 5 70.9131 5 70.7117 5C70.5102 5 70.3083 5 70.106 5C69.9036 5 69.7008 5 69.4976 5C69.2943 5 69.0906 5 68.8865 5C68.6823 5 68.4777 5 68.2726 5C68.0675 5 67.862 5 67.656 5C67.4501 5 67.2436 5 67.0367 5C66.8298 5 66.6225 5 66.4146 5C66.2068 5 65.9985 5 65.7898 5C65.5811 5 65.3719 5 65.1622 5C64.9525 5 64.7424 5 64.5318 5C64.3212 5 64.1102 5 63.8987 5C63.6871 5 63.4752 5 63.2627 5C63.0503 5 62.8374 5 62.624 5C62.4106 5 62.1967 5 61.9824 5C61.7681 5 61.5533 5 61.3381 5C61.1228 5 60.9071 5 60.6909 5C60.4747 5 60.258 5 60.0409 5C59.8237 5 59.6061 5 59.388 5C59.17 5 58.9514 5 58.7324 5C58.5133 5 58.2938 5 58.0738 5C57.8538 5 57.6334 5 57.4124 5C57.1915 5 56.9701 5 56.7482 5C56.5263 5 56.3039 5 56.081 5C55.8582 5 55.6348 5 55.411 5C55.1872 5 54.9629 5 54.7381 5C54.5133 5 54.2881 5 54.0623 5C53.8366 5 53.6103 5 53.3836 5C53.1569 5 52.9297 5 52.702 5C52.4743 5 52.2461 5 52.0175 5C51.7888 5 51.5596 5 51.33 5C51.1004 5 50.8702 5 50.6396 5C50.409 5 50.1779 5 49.9463 5C49.7147 5 49.4826 5 49.25 5C49.0174 5 48.7843 5 48.5507 5C48.3172 5 48.0831 5 47.8485 5C47.614 5 47.3789 5 47.1433 5C46.9078 5 46.6717 5 46.4352 5C46.1986 5 45.9616 5 45.724 5C45.4865 5 45.2484 5 45.0099 5C44.7713 5 44.5323 5 44.2927 5C44.0532 5 43.8131 5 43.5725 5C43.332 5 43.0909 5 42.8494 5C42.6078 5 42.3657 5 42.1232 5C41.8806 5 41.6375 5 41.3939 5C41.1503 5 40.9062 5 40.6616 5C40.417 5 40.1719 5 39.9263 5C39.6807 5 39.4345 5 39.1879 5C38.9413 5 38.6941 5 38.4464 5C38.1988 5 37.9506 5 37.7019 5C37.4532 5 37.204 5 36.9543 5C36.7046 5 36.4544 5 36.2036 5C35.9529 5 35.7016 5 35.4498 5C35.198 5 34.9457 5 34.6929 5C34.4401 5 34.1868 5 33.9329 5C33.6791 5 33.4247 5 33.1698 5C32.9149 5 32.6595 5 32.4035 5C32.1476 5 31.8911 5 31.6342 5C31.3772 5 31.1197 5 30.8616 5C30.6036 5 30.3451 5 30.086 5C29.8269 5 29.5673 5 29.3071 5C29.047 5 28.7863 5 28.5251 5C28.264 5 28.0022 5 27.74 5C27.4777 5 27.2149 5 26.9516 5C26.6883 5 26.4245 5 26.1601 5C25.8957 5 25.6308 5 25.3654 5C25.0999 5 24.834 5 24.5674 5C24.3009 5 24.0339 5 23.7663 5C23.4987 5 23.2306 5 22.9619 5C22.6933 5 22.4241 5 22.1544 5C21.8846 5 21.6144 5 21.3435 5C21.0727 5 20.8014 5 20.5295 5C20.2576 5 19.9852 5 19.7122 5C19.4392 5 19.1657 5 18.8916 5C18.6176 5 18.3429 5 18.0678 5C17.7926 5 17.5169 5 17.2407 5C16.9645 5 16.6877 5 16.4103 5C16.133 5 15.8551 5 15.5767 5C15.2982 5 15.0192 5 14.7397 5C14.4602 5 14.1801 5 13.8994 5C13.6188 5 13.3376 5 13.0559 5C12.7741 5 12.4918 5 12.209 5C11.9261 5 11.6427 5 11.3588 5C11.0748 5 10.7903 5 10.5052 5C10.2202 5 9.93454 5 9.64835 5C9.36217 5 9.07543 5 8.78812 5C8.50082 5 8.21296 5 7.92454 5C7.63612 5 7.34713 5 7.05759 5C6.76804 5 6.47794 5 6.18727 5C5.8966 5 5.60537 5 5.31357 5C5.02177 5 4.72941 5 4.43648 5C4.14356 5 3.85006 5 3.55601 5C3.26195 5 2.96732 5 2.67213 5C2.37693 5 2.08117 5 1.78484 5C1.4885 5 1.1916 5 0.89413 5C0.596658 5 0.298615 5 0 5V7Z" fill="#4100CB"/>
</svg>
