<svg width="59" height="12" viewBox="0 0 59 12" fill="none" xmlns="http://www.w3.org/2000/svg">
<path d="M59 6L49 0.226497V11.7735L59 6ZM0 7C0.0662005 7 0.132311 7 0.198331 7C0.264352 7 0.330283 7 0.396123 7C0.461964 7 0.527715 7 0.593377 7C0.659038 7 0.72461 7 0.790093 7C0.855575 7 0.920968 7 0.986271 7C1.05157 7 1.11679 7 1.18191 7C1.24704 7 1.31207 7 1.37702 7C1.44197 7 1.50683 7 1.57159 7C1.63636 7 1.70104 7 1.76563 7C1.83023 7 1.89473 7 1.95914 7C2.02355 7 2.08788 7 2.15212 7C2.21635 7 2.2805 7 2.34456 7C2.40862 7 2.47259 7 2.53647 7C2.60036 7 2.66415 7 2.72786 7C2.79157 7 2.85519 7 2.91872 7C2.98225 7 3.04569 7 3.10905 7C3.1724 7 3.23567 7 3.29885 7C3.36203 7 3.42512 7 3.48813 7C3.55113 7 3.61405 7 3.67688 7C3.73971 7 3.80245 7 3.8651 7C3.92776 7 3.99033 7 4.05281 7C4.11529 7 4.17768 7 4.23999 7C4.3023 7 4.36452 7 4.42665 7C4.48879 7 4.55083 7 4.61279 7C4.67475 7 4.73663 7 4.79841 7C4.8602 7 4.9219 7 4.98351 7C5.04513 7 5.10666 7 5.1681 7C5.22954 7 5.29089 7 5.35216 7C5.41343 7 5.47462 7 5.53571 7C5.59681 7 5.65782 7 5.71875 7C5.77967 7 5.84051 7 5.90127 7C5.96202 7 6.02269 7 6.08327 7C6.14385 7 6.20435 7 6.26476 7C6.32518 7 6.3855 7 6.44574 7C6.50599 7 6.56614 7 6.62621 7C6.68629 7 6.74627 7 6.80617 7C6.86607 7 6.92589 7 6.98562 7C7.04535 7 7.105 7 7.16456 7C7.22412 7 7.2836 7 7.343 7C7.40239 7 7.4617 7 7.52092 7C7.58015 7 7.63929 7 7.69834 7C7.7574 7 7.81637 7 7.87526 7C7.93414 7 7.99295 7 8.05167 7C8.11038 7 8.16902 7 8.22757 7C8.28612 7 8.34459 7 8.40298 7C8.46136 7 8.51966 7 8.57788 7C8.6361 7 8.69423 7 8.75228 7C8.81033 7 8.8683 7 8.92618 7C8.98406 7 9.04186 7 9.09958 7C9.1573 7 9.21493 7 9.27248 7C9.33004 7 9.38751 7 9.44489 7C9.50228 7 9.55958 7 9.6168 7C9.67402 7 9.73116 7 9.78821 7C9.84527 7 9.90224 7 9.95913 7C10.016 7 10.0728 7 10.1296 7C10.1863 7 10.2429 7 10.2995 7C10.356 7 10.4125 7 10.4689 7C10.5253 7 10.5816 7 10.6379 7C10.6941 7 10.7503 7 10.8063 7C10.8624 7 10.9184 7 10.9743 7C11.0302 7 11.086 7 11.1418 7C11.1975 7 11.2532 7 11.3088 7C11.3643 7 11.4198 7 11.4753 7C11.5307 7 11.586 7 11.6413 7C11.6965 7 11.7517 7 11.8068 7C11.8619 7 11.9169 7 11.9719 7C12.0268 7 12.0816 7 12.1364 7C12.1912 7 12.2459 7 12.3005 7C12.3551 7 12.4096 7 12.4641 7C12.5185 7 12.5729 7 12.6272 7C12.6815 7 12.7357 7 12.7898 7C12.844 7 12.898 7 12.952 7C13.006 7 13.0599 7 13.1137 7C13.1675 7 13.2212 7 13.2749 7C13.3285 7 13.3821 7 13.4356 7C13.4891 7 13.5425 7 13.5958 7C13.6492 7 13.7024 7 13.7556 7C13.8088 7 13.8619 7 13.9149 7C13.9679 7 14.0209 7 14.0737 7C14.1266 7 14.1794 7 14.2321 7C14.2848 7 14.3374 7 14.3899 7C14.4425 7 14.495 7 14.5473 7C14.5997 7 14.6521 7 14.7043 7C14.7565 7 14.8087 7 14.8608 7C14.9128 7 14.9648 7 15.0167 7C15.0687 7 15.1205 7 15.1723 7C15.224 7 15.2757 7 15.3273 7C15.379 7 15.4305 7 15.4819 7C15.5334 7 15.5848 7 15.6361 7C15.6874 7 15.7386 7 15.7897 7C15.8409 7 15.892 7 15.9429 7C15.9939 7 16.0449 7 16.0957 7C16.1465 7 16.1973 7 16.248 7C16.2987 7 16.3493 7 16.3998 7C16.4503 7 16.5008 7 16.5512 7C16.6015 7 16.6518 7 16.7021 7C16.7523 7 16.8024 7 16.8525 7C16.9026 7 16.9526 7 17.0025 7C17.0524 7 17.1022 7 17.152 7C17.2018 7 17.2515 7 17.3011 7C17.3507 7 17.4002 7 17.4497 7C17.4992 7 17.5486 7 17.5979 7C17.6472 7 17.6964 7 17.7456 7C17.7947 7 17.8438 7 17.8928 7C17.9419 7 17.9908 7 18.0396 7C18.0885 7 18.1373 7 18.186 7C18.2347 7 18.2834 7 18.3319 7C18.3805 7 18.429 7 18.4774 7C18.5258 7 18.5741 7 18.6224 7C18.6706 7 18.7188 7 18.7669 7C18.8151 7 18.8631 7 18.9111 7C18.959 7 19.0069 7 19.0547 7C19.1026 7 19.1503 7 19.198 7C19.2456 7 19.2932 7 19.3408 7C19.3883 7 19.4357 7 19.4831 7C19.5305 7 19.5778 7 19.625 7C19.6722 7 19.7194 7 19.7665 7C19.8135 7 19.8605 7 19.9075 7C19.9544 7 20.0013 7 20.048 7C20.0948 7 20.1415 7 20.1882 7C20.2348 7 20.2814 7 20.3279 7C20.3744 7 20.4208 7 20.4672 7C20.5135 7 20.5598 7 20.606 7C20.6522 7 20.6983 7 20.7444 7C20.7904 7 20.8364 7 20.8823 7C20.9283 7 20.9741 7 21.0199 7C21.0656 7 21.1113 7 21.157 7C21.2026 7 21.2481 7 21.2936 7C21.3391 7 21.3845 7 21.4299 7C21.4752 7 21.5205 7 21.5657 7C21.6109 7 21.656 7 21.701 7C21.7461 7 21.7911 7 21.836 7C21.8809 7 21.9257 7 21.9705 7C22.0153 7 22.06 7 22.1046 7C22.1492 7 22.1938 7 22.2383 7C22.2827 7 22.3272 7 22.3715 7C22.4158 7 22.4601 7 22.5043 7C22.5485 7 22.5926 7 22.6367 7C22.6808 7 22.7248 7 22.7687 7C22.8126 7 22.8564 7 22.9002 7C22.944 7 22.9877 7 23.0314 7C23.075 7 23.1186 7 23.1621 7C23.2056 7 23.249 7 23.2924 7C23.3357 7 23.379 7 23.4222 7C23.4655 7 23.5086 7 23.5517 7C23.5948 7 23.6378 7 23.6807 7C23.7237 7 23.7665 7 23.8093 7C23.8522 7 23.8949 7 23.9376 7C23.9802 7 24.0228 7 24.0654 7C24.1079 7 24.1503 7 24.1927 7C24.2351 7 24.2775 7 24.3197 7C24.362 7 24.4041 7 24.4463 7C24.4884 7 24.5304 7 24.5724 7C24.6144 7 24.6563 7 24.6982 7C24.74 7 24.7818 7 24.8235 7C24.8652 7 24.9068 7 24.9484 7C24.99 7 25.0315 7 25.0729 7C25.1144 7 25.1557 7 25.197 7C25.2383 7 25.2796 7 25.3207 7C25.3619 7 25.403 7 25.444 7C25.4851 7 25.526 7 25.5669 7C25.6078 7 25.6487 7 25.6894 7C25.7302 7 25.7709 7 25.8115 7C25.8522 7 25.8927 7 25.9332 7C25.9737 7 26.0141 7 26.0545 7C26.0949 7 26.1352 7 26.1754 7C26.2156 7 26.2558 7 26.2959 7C26.336 7 26.376 7 26.416 7C26.456 7 26.4959 7 26.5357 7C26.5755 7 26.6153 7 26.655 7C26.6947 7 26.7343 7 26.7739 7C26.8135 7 26.853 7 26.8924 7C26.9319 7 26.9712 7 27.0106 7C27.0499 7 27.0891 7 27.1283 7C27.1675 7 27.2066 7 27.2456 7C27.2847 7 27.3237 7 27.3626 7C27.4015 7 27.4403 7 27.4791 7C27.5179 7 27.5566 7 27.5953 7C27.634 7 27.6726 7 27.7111 7C27.7496 7 27.7881 7 27.8265 7C27.8649 7 27.9032 7 27.9415 7C27.9798 7 28.018 7 28.0561 7C28.0943 7 28.1323 7 28.1703 7C28.2084 7 28.2463 7 28.2842 7C28.3221 7 28.3599 7 28.3977 7C28.4354 7 28.4731 7 28.5108 7C28.5484 7 28.586 7 28.6235 7C28.661 7 28.6984 7 28.7358 7C28.7732 7 28.8105 7 28.8477 7C28.885 7 28.9222 7 28.9593 7C28.9964 7 29.0335 7 29.0705 7C29.1075 7 29.1445 7 29.1813 7C29.2182 7 29.255 7 29.2918 7C29.3285 7 29.3652 7 29.4018 7C29.4385 7 29.475 7 29.5115 7C29.548 7 29.5845 7 29.6208 7C29.6572 7 29.6935 7 29.7298 7C29.766 7 29.8022 7 29.8384 7C29.8745 7 29.9105 7 29.9466 7C29.9826 7 30.0185 7 30.0544 7C30.0903 7 30.1261 7 30.1618 7C30.1976 7 30.2333 7 30.2689 7C30.3046 7 30.3401 7 30.3757 7C30.4112 7 30.4466 7 30.482 7C30.5174 7 30.5527 7 30.588 7C30.6233 7 30.6585 7 30.6936 7C30.7288 7 30.7639 7 30.7989 7C30.8339 7 30.8689 7 30.9038 7C30.9387 7 30.9736 7 31.0083 7C31.0431 7 31.0779 7 31.1125 7C31.1472 7 31.1818 7 31.2163 7C31.2509 7 31.2854 7 31.3198 7C31.3542 7 31.3886 7 31.4229 7C31.4572 7 31.4914 7 31.5256 7C31.5598 7 31.5939 7 31.628 7C31.6621 7 31.6961 7 31.73 7C31.764 7 31.7979 7 31.8317 7C31.8655 7 31.8993 7 31.933 7C31.9667 7 32.0004 7 32.034 7C32.0676 7 32.1011 7 32.1346 7C32.1681 7 32.2015 7 32.2348 7C32.2682 7 32.3015 7 32.3348 7C32.368 7 32.4012 7 32.4343 7C32.4674 7 32.5005 7 32.5335 7C32.5665 7 32.5995 7 32.6324 7C32.6653 7 32.6981 7 32.7309 7C32.7637 7 32.7964 7 32.829 7C32.8617 7 32.8943 7 32.9269 7C32.9594 7 32.9919 7 33.0243 7C33.0568 7 33.0891 7 33.1215 7C33.1538 7 33.186 7 33.2182 7C33.2504 7 33.2826 7 33.3147 7C33.3468 7 33.3788 7 33.4108 7C33.4427 7 33.4747 7 33.5065 7C33.5384 7 33.5702 7 33.6019 7C33.6337 7 33.6654 7 33.697 7C33.7287 7 33.7602 7 33.7918 7C33.8233 7 33.8548 7 33.8862 7C33.9176 7 33.9489 7 33.9802 7C34.0115 7 34.0428 7 34.074 7C34.1051 7 34.1363 7 34.1674 7C34.1984 7 34.2294 7 34.2604 7C34.2914 7 34.3223 7 34.3531 7C34.384 7 34.4148 7 34.4455 7C34.4763 7 34.507 7 34.5376 7C34.5682 7 34.5988 7 34.6293 7C34.6598 7 34.6903 7 34.7207 7C34.7511 7 34.7815 7 34.8118 7C34.8421 7 34.8723 7 34.9025 7C34.9327 7 34.9629 7 34.993 7C35.023 7 35.0531 7 35.083 7C35.113 7 35.1429 7 35.1728 7C35.2027 7 35.2325 7 35.2623 7C35.292 7 35.3217 7 35.3514 7C35.381 7 35.4106 7 35.4402 7C35.4697 7 35.4992 7 35.5286 7C35.5581 7 35.5875 7 35.6168 7C35.6461 7 35.6754 7 35.7046 7C35.7338 7 35.763 7 35.7921 7C35.8212 7 35.8503 7 35.8793 7C35.9083 7 35.9373 7 35.9662 7C35.9951 7 36.0239 7 36.0527 7C36.0815 7 36.1103 7 36.139 7C36.1677 7 36.1963 7 36.2249 7C36.2535 7 36.282 7 36.3105 7C36.339 7 36.3674 7 36.3958 7C36.4242 7 36.4525 7 36.4808 7C36.5091 7 36.5373 7 36.5655 7C36.5936 7 36.6218 7 36.6498 7C36.6779 7 36.7059 7 36.7339 7C36.7619 7 36.7898 7 36.8176 7C36.8455 7 36.8733 7 36.9011 7C36.9288 7 36.9565 7 36.9842 7C37.0118 7 37.0395 7 37.067 7C37.0946 7 37.1221 7 37.1495 7C37.177 7 37.2044 7 37.2317 7C37.2591 7 37.2864 7 37.3136 7C37.3409 7 37.3681 7 37.3952 7C37.4224 7 37.4495 7 37.4765 7C37.5036 7 37.5306 7 37.5575 7C37.5845 7 37.6114 7 37.6382 7C37.6651 7 37.6919 7 37.7186 7C37.7454 7 37.7721 7 37.7987 7C37.8254 7 37.852 7 37.8785 7C37.9051 7 37.9316 7 37.958 7C37.9845 7 38.0109 7 38.0372 7C38.0636 7 38.0899 7 38.1161 7C38.1424 7 38.1686 7 38.1947 7C38.2209 7 38.247 7 38.2731 7C38.2991 7 38.3251 7 38.3511 7C38.377 7 38.403 7 38.4288 7C38.4547 7 38.4805 7 38.5063 7C38.532 7 38.5577 7 38.5834 7C38.6091 7 38.6347 7 38.6603 7C38.6858 7 38.7114 7 38.7368 7C38.7623 7 38.7878 7 38.8131 7C38.8385 7 38.8638 7 38.8891 7C38.9144 7 38.9397 7 38.9648 7C38.99 7 39.0152 7 39.0403 7C39.0654 7 39.0904 7 39.1154 7C39.1404 7 39.1654 7 39.1903 7C39.2152 7 39.24 7 39.2649 7C39.2897 7 39.3144 7 39.3391 7C39.3639 7 39.3885 7 39.4132 7C39.4378 7 39.4624 7 39.4869 7C39.5114 7 39.5359 7 39.5603 7C39.5848 7 39.6092 7 39.6335 7C39.6579 7 39.6822 7 39.7064 7C39.7307 7 39.7549 7 39.779 7C39.8032 7 39.8273 7 39.8514 7C39.8755 7 39.8995 7 39.9235 7C39.9474 7 39.9714 7 39.9952 7C40.0191 7 40.043 7 40.0668 7C40.0906 7 40.1143 7 40.138 7C40.1617 7 40.1854 7 40.209 7C40.2326 7 40.2562 7 40.2797 7C40.3032 7 40.3267 7 40.3501 7C40.3736 7 40.397 7 40.4203 7C40.4436 7 40.4669 7 40.4902 7C40.5135 7 40.5367 7 40.5598 7C40.583 7 40.6061 7 40.6292 7C40.6523 7 40.6753 7 40.6983 7C40.7213 7 40.7442 7 40.7671 7C40.79 7 40.8129 7 40.8357 7C40.8585 7 40.8813 7 40.904 7C40.9267 7 40.9494 7 40.9721 7C40.9947 7 41.0173 7 41.0398 7C41.0624 7 41.0849 7 41.1074 7C41.1298 7 41.1523 7 41.1746 7C41.197 7 41.2193 7 41.2416 7C41.2639 7 41.2862 7 41.3084 7C41.3306 7 41.3527 7 41.3749 7C41.397 7 41.4191 7 41.4411 7C41.4631 7 41.4851 7 41.5071 7C41.529 7 41.5509 7 41.5728 7C41.5947 7 41.6165 7 41.6383 7C41.6601 7 41.6818 7 41.7035 7C41.7252 7 41.7468 7 41.7685 7C41.7901 7 41.8116 7 41.8332 7C41.8547 7 41.8762 7 41.8976 7C41.9191 7 41.9405 7 41.9618 7C41.9832 7 42.0045 7 42.0258 7C42.0471 7 42.0683 7 42.0895 7C42.1107 7 42.1319 7 42.153 7C42.1741 7 42.1952 7 42.2162 7C42.2373 7 42.2582 7 42.2792 7C42.3002 7 42.3211 7 42.3419 7C42.3628 7 42.3836 7 42.4044 7C42.4252 7 42.446 7 42.4667 7C42.4874 7 42.5081 7 42.5287 7C42.5493 7 42.5699 7 42.5904 7C42.611 7 42.6315 7 42.652 7C42.6724 7 42.6929 7 42.7133 7C42.7337 7 42.754 7 42.7743 7C42.7946 7 42.8149 7 42.8351 7C42.8554 7 42.8755 7 42.8957 7C42.9158 7 42.936 7 42.956 7C42.9761 7 42.9961 7 43.0161 7C43.0361 7 43.0561 7 43.076 7C43.0959 7 43.1158 7 43.1356 7C43.1555 7 43.1753 7 43.195 7C43.2148 7 43.2345 7 43.2542 7C43.2739 7 43.2936 7 43.3132 7C43.3328 7 43.3523 7 43.3719 7C43.3914 7 43.4109 7 43.4304 7C43.4498 7 43.4692 7 43.4886 7C43.508 7 43.5273 7 43.5466 7C43.5659 7 43.5852 7 43.6044 7C43.6237 7 43.6429 7 43.662 7C43.6812 7 43.7003 7 43.7194 7C43.7385 7 43.7575 7 43.7765 7C43.7955 7 43.8145 7 43.8334 7C43.8523 7 43.8712 7 43.8901 7C43.9089 7 43.9278 7 43.9465 7C43.9653 7 43.9841 7 44.0028 7C44.0215 7 44.0402 7 44.0588 7C44.0774 7 44.0961 7 44.1146 7C44.1332 7 44.1517 7 44.1702 7C44.1887 7 44.2071 7 44.2256 7C44.244 7 44.2624 7 44.2807 7C44.2991 7 44.3174 7 44.3357 7C44.3539 7 44.3722 7 44.3904 7C44.4086 7 44.4268 7 44.4449 7C44.463 7 44.4811 7 44.4992 7C44.5173 7 44.5353 7 44.5533 7C44.5713 7 44.5892 7 44.6071 7C44.6251 7 44.643 7 44.6608 7C44.6787 7 44.6965 7 44.7143 7C44.732 7 44.7498 7 44.7675 7C44.7852 7 44.8029 7 44.8205 7C44.8382 7 44.8558 7 44.8734 7C44.891 7 44.9085 7 44.926 7C44.9435 7 44.961 7 44.9784 7C44.9959 7 45.0133 7 45.0306 7C45.048 7 45.0654 7 45.0827 7C45.1 7 45.1172 7 45.1345 7C45.1517 7 45.1689 7 45.1861 7C45.2032 7 45.2204 7 45.2375 7C45.2546 7 45.2717 7 45.2887 7C45.3057 7 45.3227 7 45.3397 7C45.3567 7 45.3736 7 45.3905 7C45.4074 7 45.4243 7 45.4411 7C45.458 7 45.4748 7 45.4916 7C45.5083 7 45.5251 7 45.5418 7C45.5585 7 45.5752 7 45.5918 7C45.6084 7 45.6251 7 45.6416 7C45.6582 7 45.6748 7 45.6913 7C45.7078 7 45.7243 7 45.7407 7C45.7572 7 45.7736 7 45.79 7C45.8064 7 45.8227 7 45.8391 7C45.8554 7 45.8717 7 45.8879 7C45.9042 7 45.9204 7 45.9366 7C45.9528 7 45.969 7 45.9851 7C46.0013 7 46.0174 7 46.0334 7C46.0495 7 46.0656 7 46.0816 7C46.0976 7 46.1136 7 46.1295 7C46.1455 7 46.1614 7 46.1773 7C46.1932 7 46.209 7 46.2248 7C46.2407 7 46.2565 7 46.2722 7C46.288 7 46.3037 7 46.3194 7C46.3351 7 46.3508 7 46.3665 7C46.3821 7 46.3977 7 46.4133 7C46.4289 7 46.4445 7 46.46 7C46.4755 7 46.491 7 46.5065 7C46.5219 7 46.5374 7 46.5528 7C46.5682 7 46.5836 7 46.5989 7C46.6143 7 46.6296 7 46.6449 7C46.6602 7 46.6754 7 46.6907 7C46.7059 7 46.7211 7 46.7363 7C46.7515 7 46.7666 7 46.7817 7C46.7968 7 46.8119 7 46.827 7C46.8421 7 46.8571 7 46.8721 7C46.8871 7 46.9021 7 46.917 7C46.932 7 46.9469 7 46.9618 7C46.9767 7 46.9915 7 47.0064 7C47.0212 7 47.036 7 47.0508 7C47.0655 7 47.0803 7 47.095 7C47.1097 7 47.1244 7 47.1391 7C47.1538 7 47.1684 7 47.183 7C47.1976 7 47.2122 7 47.2268 7C47.2413 7 47.2559 7 47.2704 7C47.2849 7 47.2993 7 47.3138 7C47.3282 7 47.3427 7 47.357 7C47.3714 7 47.3858 7 47.4002 7C47.4145 7 47.4288 7 47.4431 7C47.4574 7 47.4716 7 47.4859 7C47.5001 7 47.5143 7 47.5285 7C47.5427 7 47.5568 7 47.571 7C47.5851 7 47.5992 7 47.6133 7C47.6273 7 47.6414 7 47.6554 7C47.6694 7 47.6834 7 47.6974 7C47.7114 7 47.7253 7 47.7393 7C47.7532 7 47.7671 7 47.781 7C47.7948 7 47.8087 7 47.8225 7C47.8363 7 47.8501 7 47.8639 7C47.8776 7 47.8914 7 47.9051 7C47.9188 7 47.9325 7 47.9462 7C47.9599 7 47.9735 7 47.9871 7C48.0007 7 48.0143 7 48.0279 7C48.0415 7 48.055 7 48.0685 7C48.0821 7 48.0956 7 48.109 7C48.1225 7 48.136 7 48.1494 7C48.1628 7 48.1762 7 48.1896 7C48.2029 7 48.2163 7 48.2296 7C48.243 7 48.2563 7 48.2695 7C48.2828 7 48.2961 7 48.3093 7C48.3225 7 48.3358 7 48.3489 7C48.3621 7 48.3753 7 48.3884 7C48.4016 7 48.4147 7 48.4278 7C48.4409 7 48.4539 7 48.467 7C48.48 7 48.493 7 48.5061 7C48.5191 7 48.532 7 48.545 7C48.5579 7 48.5709 7 48.5838 7C48.5967 7 48.6096 7 48.6224 7C48.6353 7 48.6481 7 48.661 7C48.6738 7 48.6866 7 48.6994 7C48.7121 7 48.7249 7 48.7376 7C48.7503 7 48.7631 7 48.7757 7C48.7884 7 48.8011 7 48.8137 7C48.8264 7 48.839 7 48.8516 7C48.8642 7 48.8768 7 48.8893 7C48.9019 7 48.9144 7 48.9269 7C48.9394 7 48.9519 7 48.9644 7C48.9769 7 48.9893 7 49.0018 7C49.0142 7 49.0266 7 49.039 7C49.0514 7 49.0637 7 49.0761 7C49.0884 7 49.1008 7 49.1131 7C49.1254 7 49.1376 7 49.1499 7C49.1622 7 49.1744 7 49.1866 7C49.1989 7 49.2111 7 49.2232 7C49.2354 7 49.2476 7 49.2597 7C49.2719 7 49.284 7 49.2961 7C49.3082 7 49.3203 7 49.3323 7C49.3444 7 49.3564 7 49.3685 7C49.3805 7 49.3925 7 49.4045 7C49.4165 7 49.4284 7 49.4404 7C49.4523 7 49.4642 7 49.4761 7C49.488 7 49.4999 7 49.5118 7C49.5237 7 49.5355 7 49.5473 7C49.5592 7 49.571 7 49.5828 7C49.5946 7 49.6063 7 49.6181 7C49.6299 7 49.6416 7 49.6533 7C49.665 7 49.6767 7 49.6884 7C49.7001 7 49.7117 7 49.7234 7C49.735 7 49.7467 7 49.7583 7C49.7699 7 49.7815 7 49.793 7C49.8046 7 49.8162 7 49.8277 7C49.8392 7 49.8508 7 49.8623 7C49.8738 7 49.8852 7 49.8967 7C49.9082 7 49.9196 7 49.9311 7C49.9425 7 49.9539 7 49.9653 7C49.9767 7 49.9881 7 49.9994 7V5C49.9881 5 49.9767 5 49.9653 5C49.9539 5 49.9425 5 49.9311 5C49.9196 5 49.9082 5 49.8967 5C49.8852 5 49.8738 5 49.8623 5C49.8508 5 49.8392 5 49.8277 5C49.8162 5 49.8046 5 49.793 5C49.7815 5 49.7699 5 49.7583 5C49.7467 5 49.735 5 49.7234 5C49.7117 5 49.7001 5 49.6884 5C49.6767 5 49.665 5 49.6533 5C49.6416 5 49.6299 5 49.6181 5C49.6063 5 49.5946 5 49.5828 5C49.571 5 49.5592 5 49.5473 5C49.5355 5 49.5237 5 49.5118 5C49.4999 5 49.488 5 49.4761 5C49.4642 5 49.4523 5 49.4404 5C49.4284 5 49.4165 5 49.4045 5C49.3925 5 49.3805 5 49.3685 5C49.3564 5 49.3444 5 49.3323 5C49.3203 5 49.3082 5 49.2961 5C49.284 5 49.2719 5 49.2597 5C49.2476 5 49.2354 5 49.2232 5C49.2111 5 49.1989 5 49.1866 5C49.1744 5 49.1622 5 49.1499 5C49.1376 5 49.1254 5 49.1131 5C49.1008 5 49.0884 5 49.0761 5C49.0637 5 49.0514 5 49.039 5C49.0266 5 49.0142 5 49.0018 5C48.9893 5 48.9769 5 48.9644 5C48.9519 5 48.9394 5 48.9269 5C48.9144 5 48.9019 5 48.8893 5C48.8768 5 48.8642 5 48.8516 5C48.839 5 48.8264 5 48.8137 5C48.8011 5 48.7884 5 48.7757 5C48.7631 5 48.7503 5 48.7376 5C48.7249 5 48.7121 5 48.6994 5C48.6866 5 48.6738 5 48.661 5C48.6481 5 48.6353 5 48.6224 5C48.6096 5 48.5967 5 48.5838 5C48.5709 5 48.5579 5 48.545 5C48.532 5 48.5191 5 48.5061 5C48.493 5 48.48 5 48.467 5C48.4539 5 48.4409 5 48.4278 5C48.4147 5 48.4016 5 48.3884 5C48.3753 5 48.3621 5 48.3489 5C48.3358 5 48.3225 5 48.3093 5C48.2961 5 48.2828 5 48.2695 5C48.2563 5 48.243 5 48.2296 5C48.2163 5 48.2029 5 48.1896 5C48.1762 5 48.1628 5 48.1494 5C48.136 5 48.1225 5 48.109 5C48.0956 5 48.0821 5 48.0685 5C48.055 5 48.0415 5 48.0279 5C48.0143 5 48.0007 5 47.9871 5C47.9735 5 47.9599 5 47.9462 5C47.9325 5 47.9188 5 47.9051 5C47.8914 5 47.8776 5 47.8639 5C47.8501 5 47.8363 5 47.8225 5C47.8087 5 47.7948 5 47.781 5C47.7671 5 47.7532 5 47.7393 5C47.7253 5 47.7114 5 47.6974 5C47.6834 5 47.6694 5 47.6554 5C47.6414 5 47.6273 5 47.6133 5C47.5992 5 47.5851 5 47.571 5C47.5568 5 47.5427 5 47.5285 5C47.5143 5 47.5001 5 47.4859 5C47.4716 5 47.4574 5 47.4431 5C47.4288 5 47.4145 5 47.4002 5C47.3858 5 47.3714 5 47.357 5C47.3427 5 47.3282 5 47.3138 5C47.2993 5 47.2849 5 47.2704 5C47.2559 5 47.2413 5 47.2268 5C47.2122 5 47.1976 5 47.183 5C47.1684 5 47.1538 5 47.1391 5C47.1244 5 47.1097 5 47.095 5C47.0803 5 47.0655 5 47.0508 5C47.036 5 47.0212 5 47.0064 5C46.9915 5 46.9767 5 46.9618 5C46.9469 5 46.932 5 46.917 5C46.9021 5 46.8871 5 46.8721 5C46.8571 5 46.8421 5 46.827 5C46.8119 5 46.7968 5 46.7817 5C46.7666 5 46.7515 5 46.7363 5C46.7211 5 46.7059 5 46.6907 5C46.6754 5 46.6602 5 46.6449 5C46.6296 5 46.6143 5 46.5989 5C46.5836 5 46.5682 5 46.5528 5C46.5374 5 46.5219 5 46.5065 5C46.491 5 46.4755 5 46.46 5C46.4445 5 46.4289 5 46.4133 5C46.3977 5 46.3821 5 46.3665 5C46.3508 5 46.3351 5 46.3194 5C46.3037 5 46.288 5 46.2722 5C46.2565 5 46.2407 5 46.2248 5C46.209 5 46.1932 5 46.1773 5C46.1614 5 46.1455 5 46.1295 5C46.1136 5 46.0976 5 46.0816 5C46.0656 5 46.0495 5 46.0334 5C46.0174 5 46.0013 5 45.9851 5C45.969 5 45.9528 5 45.9366 5C45.9204 5 45.9042 5 45.8879 5C45.8717 5 45.8554 5 45.8391 5C45.8227 5 45.8064 5 45.79 5C45.7736 5 45.7572 5 45.7407 5C45.7243 5 45.7078 5 45.6913 5C45.6748 5 45.6582 5 45.6416 5C45.6251 5 45.6084 5 45.5918 5C45.5752 5 45.5585 5 45.5418 5C45.5251 5 45.5083 5 45.4916 5C45.4748 5 45.458 5 45.4411 5C45.4243 5 45.4074 5 45.3905 5C45.3736 5 45.3567 5 45.3397 5C45.3227 5 45.3057 5 45.2887 5C45.2717 5 45.2546 5 45.2375 5C45.2204 5 45.2032 5 45.1861 5C45.1689 5 45.1517 5 45.1345 5C45.1172 5 45.1 5 45.0827 5C45.0654 5 45.048 5 45.0306 5C45.0133 5 44.9959 5 44.9784 5C44.961 5 44.9435 5 44.926 5C44.9085 5 44.891 5 44.8734 5C44.8558 5 44.8382 5 44.8205 5C44.8029 5 44.7852 5 44.7675 5C44.7498 5 44.732 5 44.7143 5C44.6965 5 44.6787 5 44.6608 5C44.643 5 44.6251 5 44.6071 5C44.5892 5 44.5713 5 44.5533 5C44.5353 5 44.5173 5 44.4992 5C44.4811 5 44.463 5 44.4449 5C44.4268 5 44.4086 5 44.3904 5C44.3722 5 44.3539 5 44.3357 5C44.3174 5 44.2991 5 44.2807 5C44.2624 5 44.244 5 44.2256 5C44.2071 5 44.1887 5 44.1702 5C44.1517 5 44.1332 5 44.1146 5C44.0961 5 44.0774 5 44.0588 5C44.0402 5 44.0215 5 44.0028 5C43.9841 5 43.9653 5 43.9465 5C43.9278 5 43.9089 5 43.8901 5C43.8712 5 43.8523 5 43.8334 5C43.8145 5 43.7955 5 43.7765 5C43.7575 5 43.7385 5 43.7194 5C43.7003 5 43.6812 5 43.662 5C43.6429 5 43.6237 5 43.6044 5C43.5852 5 43.5659 5 43.5466 5C43.5273 5 43.508 5 43.4886 5C43.4692 5 43.4498 5 43.4304 5C43.4109 5 43.3914 5 43.3719 5C43.3523 5 43.3328 5 43.3132 5C43.2936 5 43.2739 5 43.2542 5C43.2345 5 43.2148 5 43.195 5C43.1753 5 43.1555 5 43.1356 5C43.1158 5 43.0959 5 43.076 5C43.0561 5 43.0361 5 43.0161 5C42.9961 5 42.9761 5 42.956 5C42.936 5 42.9158 5 42.8957 5C42.8755 5 42.8554 5 42.8351 5C42.8149 5 42.7946 5 42.7743 5C42.754 5 42.7337 5 42.7133 5C42.6929 5 42.6724 5 42.652 5C42.6315 5 42.611 5 42.5904 5C42.5699 5 42.5493 5 42.5287 5C42.5081 5 42.4874 5 42.4667 5C42.446 5 42.4252 5 42.4044 5C42.3836 5 42.3628 5 42.3419 5C42.3211 5 42.3002 5 42.2792 5C42.2582 5 42.2373 5 42.2162 5C42.1952 5 42.1741 5 42.153 5C42.1319 5 42.1107 5 42.0895 5C42.0683 5 42.0471 5 42.0258 5C42.0045 5 41.9832 5 41.9618 5C41.9405 5 41.9191 5 41.8976 5C41.8762 5 41.8547 5 41.8332 5C41.8116 5 41.7901 5 41.7685 5C41.7468 5 41.7252 5 41.7035 5C41.6818 5 41.6601 5 41.6383 5C41.6165 5 41.5947 5 41.5728 5C41.5509 5 41.529 5 41.5071 5C41.4851 5 41.4631 5 41.4411 5C41.4191 5 41.397 5 41.3749 5C41.3527 5 41.3306 5 41.3084 5C41.2862 5 41.2639 5 41.2416 5C41.2193 5 41.197 5 41.1746 5C41.1523 5 41.1298 5 41.1074 5C41.0849 5 41.0624 5 41.0398 5C41.0173 5 40.9947 5 40.9721 5C40.9494 5 40.9267 5 40.904 5C40.8813 5 40.8585 5 40.8357 5C40.8129 5 40.79 5 40.7671 5C40.7442 5 40.7213 5 40.6983 5C40.6753 5 40.6523 5 40.6292 5C40.6061 5 40.583 5 40.5598 5C40.5367 5 40.5135 5 40.4902 5C40.4669 5 40.4436 5 40.4203 5C40.397 5 40.3736 5 40.3501 5C40.3267 5 40.3032 5 40.2797 5C40.2562 5 40.2326 5 40.209 5C40.1854 5 40.1617 5 40.138 5C40.1143 5 40.0906 5 40.0668 5C40.043 5 40.0191 5 39.9952 5C39.9714 5 39.9474 5 39.9235 5C39.8995 5 39.8755 5 39.8514 5C39.8273 5 39.8032 5 39.779 5C39.7549 5 39.7307 5 39.7064 5C39.6822 5 39.6579 5 39.6335 5C39.6092 5 39.5848 5 39.5603 5C39.5359 5 39.5114 5 39.4869 5C39.4624 5 39.4378 5 39.4132 5C39.3885 5 39.3639 5 39.3391 5C39.3144 5 39.2897 5 39.2649 5C39.24 5 39.2152 5 39.1903 5C39.1654 5 39.1404 5 39.1154 5C39.0904 5 39.0654 5 39.0403 5C39.0152 5 38.99 5 38.9648 5C38.9397 5 38.9144 5 38.8891 5C38.8638 5 38.8385 5 38.8131 5C38.7878 5 38.7623 5 38.7368 5C38.7114 5 38.6858 5 38.6603 5C38.6347 5 38.6091 5 38.5834 5C38.5577 5 38.532 5 38.5063 5C38.4805 5 38.4547 5 38.4288 5C38.403 5 38.377 5 38.3511 5C38.3251 5 38.2991 5 38.2731 5C38.247 5 38.2209 5 38.1947 5C38.1686 5 38.1424 5 38.1161 5C38.0899 5 38.0636 5 38.0372 5C38.0109 5 37.9845 5 37.958 5C37.9316 5 37.9051 5 37.8785 5C37.852 5 37.8254 5 37.7987 5C37.7721 5 37.7454 5 37.7186 5C37.6919 5 37.6651 5 37.6382 5C37.6114 5 37.5845 5 37.5575 5C37.5306 5 37.5036 5 37.4765 5C37.4495 5 37.4224 5 37.3952 5C37.3681 5 37.3409 5 37.3136 5C37.2864 5 37.2591 5 37.2317 5C37.2044 5 37.177 5 37.1495 5C37.1221 5 37.0946 5 37.067 5C37.0395 5 37.0118 5 36.9842 5C36.9565 5 36.9288 5 36.9011 5C36.8733 5 36.8455 5 36.8176 5C36.7898 5 36.7619 5 36.7339 5C36.7059 5 36.6779 5 36.6498 5C36.6218 5 36.5936 5 36.5655 5C36.5373 5 36.5091 5 36.4808 5C36.4525 5 36.4242 5 36.3958 5C36.3674 5 36.339 5 36.3105 5C36.282 5 36.2535 5 36.2249 5C36.1963 5 36.1677 5 36.139 5C36.1103 5 36.0815 5 36.0527 5C36.0239 5 35.9951 5 35.9662 5C35.9373 5 35.9083 5 35.8793 5C35.8503 5 35.8212 5 35.7921 5C35.763 5 35.7338 5 35.7046 5C35.6754 5 35.6461 5 35.6168 5C35.5875 5 35.5581 5 35.5286 5C35.4992 5 35.4697 5 35.4402 5C35.4106 5 35.381 5 35.3514 5C35.3217 5 35.292 5 35.2623 5C35.2325 5 35.2027 5 35.1728 5C35.1429 5 35.113 5 35.083 5C35.0531 5 35.023 5 34.993 5C34.9629 5 34.9327 5 34.9025 5C34.8723 5 34.8421 5 34.8118 5C34.7815 5 34.7511 5 34.7207 5C34.6903 5 34.6598 5 34.6293 5C34.5988 5 34.5682 5 34.5376 5C34.507 5 34.4763 5 34.4455 5C34.4148 5 34.384 5 34.3531 5C34.3223 5 34.2914 5 34.2604 5C34.2294 5 34.1984 5 34.1674 5C34.1363 5 34.1051 5 34.074 5C34.0428 5 34.0115 5 33.9802 5C33.9489 5 33.9176 5 33.8862 5C33.8548 5 33.8233 5 33.7918 5C33.7602 5 33.7287 5 33.697 5C33.6654 5 33.6337 5 33.6019 5C33.5702 5 33.5384 5 33.5065 5C33.4747 5 33.4427 5 33.4108 5C33.3788 5 33.3468 5 33.3147 5C33.2826 5 33.2504 5 33.2182 5C33.186 5 33.1538 5 33.1215 5C33.0891 5 33.0568 5 33.0243 5C32.9919 5 32.9594 5 32.9269 5C32.8943 5 32.8617 5 32.829 5C32.7964 5 32.7637 5 32.7309 5C32.6981 5 32.6653 5 32.6324 5C32.5995 5 32.5665 5 32.5335 5C32.5005 5 32.4674 5 32.4343 5C32.4012 5 32.368 5 32.3348 5C32.3015 5 32.2682 5 32.2348 5C32.2015 5 32.1681 5 32.1346 5C32.1011 5 32.0676 5 32.034 5C32.0004 5 31.9667 5 31.933 5C31.8993 5 31.8655 5 31.8317 5C31.7979 5 31.764 5 31.73 5C31.6961 5 31.6621 5 31.628 5C31.5939 5 31.5598 5 31.5256 5C31.4914 5 31.4572 5 31.4229 5C31.3886 5 31.3542 5 31.3198 5C31.2854 5 31.2509 5 31.2163 5C31.1818 5 31.1472 5 31.1125 5C31.0779 5 31.0431 5 31.0083 5C30.9736 5 30.9387 5 30.9038 5C30.8689 5 30.8339 5 30.7989 5C30.7639 5 30.7288 5 30.6936 5C30.6585 5 30.6233 5 30.588 5C30.5527 5 30.5174 5 30.482 5C30.4466 5 30.4112 5 30.3757 5C30.3401 5 30.3046 5 30.2689 5C30.2333 5 30.1976 5 30.1618 5C30.1261 5 30.0903 5 30.0544 5C30.0185 5 29.9826 5 29.9466 5C29.9105 5 29.8745 5 29.8384 5C29.8022 5 29.766 5 29.7298 5C29.6935 5 29.6572 5 29.6208 5C29.5845 5 29.548 5 29.5115 5C29.475 5 29.4385 5 29.4018 5C29.3652 5 29.3285 5 29.2918 5C29.255 5 29.2182 5 29.1813 5C29.1445 5 29.1075 5 29.0705 5C29.0335 5 28.9964 5 28.9593 5C28.9222 5 28.885 5 28.8477 5C28.8105 5 28.7732 5 28.7358 5C28.6984 5 28.661 5 28.6235 5C28.586 5 28.5484 5 28.5108 5C28.4731 5 28.4354 5 28.3977 5C28.3599 5 28.3221 5 28.2842 5C28.2463 5 28.2084 5 28.1703 5C28.1323 5 28.0943 5 28.0561 5C28.018 5 27.9798 5 27.9415 5C27.9032 5 27.8649 5 27.8265 5C27.7881 5 27.7496 5 27.7111 5C27.6726 5 27.634 5 27.5953 5C27.5566 5 27.5179 5 27.4791 5C27.4403 5 27.4015 5 27.3626 5C27.3237 5 27.2847 5 27.2456 5C27.2066 5 27.1675 5 27.1283 5C27.0891 5 27.0499 5 27.0106 5C26.9712 5 26.9319 5 26.8924 5C26.853 5 26.8135 5 26.7739 5C26.7343 5 26.6947 5 26.655 5C26.6153 5 26.5755 5 26.5357 5C26.4959 5 26.456 5 26.416 5C26.376 5 26.336 5 26.2959 5C26.2558 5 26.2156 5 26.1754 5C26.1352 5 26.0949 5 26.0545 5C26.0141 5 25.9737 5 25.9332 5C25.8927 5 25.8522 5 25.8115 5C25.7709 5 25.7302 5 25.6894 5C25.6487 5 25.6078 5 25.5669 5C25.526 5 25.4851 5 25.444 5C25.403 5 25.3619 5 25.3207 5C25.2796 5 25.2383 5 25.197 5C25.1557 5 25.1144 5 25.0729 5C25.0315 5 24.99 5 24.9484 5C24.9068 5 24.8652 5 24.8235 5C24.7818 5 24.74 5 24.6982 5C24.6563 5 24.6144 5 24.5724 5C24.5304 5 24.4884 5 24.4463 5C24.4041 5 24.362 5 24.3197 5C24.2775 5 24.2351 5 24.1927 5C24.1503 5 24.1079 5 24.0654 5C24.0228 5 23.9802 5 23.9376 5C23.8949 5 23.8522 5 23.8093 5C23.7665 5 23.7237 5 23.6807 5C23.6378 5 23.5948 5 23.5517 5C23.5086 5 23.4655 5 23.4222 5C23.379 5 23.3357 5 23.2924 5C23.249 5 23.2056 5 23.1621 5C23.1186 5 23.075 5 23.0314 5C22.9877 5 22.944 5 22.9002 5C22.8564 5 22.8126 5 22.7687 5C22.7248 5 22.6808 5 22.6367 5C22.5926 5 22.5485 5 22.5043 5C22.4601 5 22.4158 5 22.3715 5C22.3272 5 22.2827 5 22.2383 5C22.1938 5 22.1492 5 22.1046 5C22.06 5 22.0153 5 21.9705 5C21.9257 5 21.8809 5 21.836 5C21.7911 5 21.7461 5 21.701 5C21.656 5 21.6109 5 21.5657 5C21.5205 5 21.4752 5 21.4299 5C21.3845 5 21.3391 5 21.2936 5C21.2481 5 21.2026 5 21.157 5C21.1113 5 21.0656 5 21.0199 5C20.9741 5 20.9283 5 20.8823 5C20.8364 5 20.7904 5 20.7444 5C20.6983 5 20.6522 5 20.606 5C20.5598 5 20.5135 5 20.4672 5C20.4208 5 20.3744 5 20.3279 5C20.2814 5 20.2348 5 20.1882 5C20.1415 5 20.0948 5 20.048 5C20.0013 5 19.9544 5 19.9075 5C19.8605 5 19.8135 5 19.7665 5C19.7194 5 19.6722 5 19.625 5C19.5778 5 19.5305 5 19.4831 5C19.4357 5 19.3883 5 19.3408 5C19.2932 5 19.2456 5 19.198 5C19.1503 5 19.1026 5 19.0547 5C19.0069 5 18.959 5 18.9111 5C18.8631 5 18.8151 5 18.7669 5C18.7188 5 18.6706 5 18.6224 5C18.5741 5 18.5258 5 18.4774 5C18.429 5 18.3805 5 18.3319 5C18.2834 5 18.2347 5 18.186 5C18.1373 5 18.0885 5 18.0396 5C17.9908 5 17.9419 5 17.8928 5C17.8438 5 17.7947 5 17.7456 5C17.6964 5 17.6472 5 17.5979 5C17.5486 5 17.4992 5 17.4497 5C17.4002 5 17.3507 5 17.3011 5C17.2515 5 17.2018 5 17.152 5C17.1022 5 17.0524 5 17.0025 5C16.9526 5 16.9026 5 16.8525 5C16.8024 5 16.7523 5 16.7021 5C16.6518 5 16.6015 5 16.5512 5C16.5008 5 16.4503 5 16.3998 5C16.3493 5 16.2987 5 16.248 5C16.1973 5 16.1465 5 16.0957 5C16.0449 5 15.9939 5 15.9429 5C15.892 5 15.8409 5 15.7897 5C15.7386 5 15.6874 5 15.6361 5C15.5848 5 15.5334 5 15.4819 5C15.4305 5 15.379 5 15.3273 5C15.2757 5 15.224 5 15.1723 5C15.1205 5 15.0687 5 15.0167 5C14.9648 5 14.9128 5 14.8608 5C14.8087 5 14.7565 5 14.7043 5C14.6521 5 14.5997 5 14.5473 5C14.495 5 14.4425 5 14.3899 5C14.3374 5 14.2848 5 14.2321 5C14.1794 5 14.1266 5 14.0737 5C14.0209 5 13.9679 5 13.9149 5C13.8619 5 13.8088 5 13.7556 5C13.7024 5 13.6492 5 13.5958 5C13.5425 5 13.4891 5 13.4356 5C13.3821 5 13.3285 5 13.2749 5C13.2212 5 13.1675 5 13.1137 5C13.0599 5 13.006 5 12.952 5C12.898 5 12.844 5 12.7898 5C12.7357 5 12.6815 5 12.6272 5C12.5729 5 12.5185 5 12.4641 5C12.4096 5 12.3551 5 12.3005 5C12.2459 5 12.1912 5 12.1364 5C12.0816 5 12.0268 5 11.9719 5C11.9169 5 11.8619 5 11.8068 5C11.7517 5 11.6965 5 11.6413 5C11.586 5 11.5307 5 11.4753 5C11.4198 5 11.3643 5 11.3088 5C11.2532 5 11.1975 5 11.1418 5C11.086 5 11.0302 5 10.9743 5C10.9184 5 10.8624 5 10.8063 5C10.7503 5 10.6941 5 10.6379 5C10.5816 5 10.5253 5 10.4689 5C10.4125 5 10.356 5 10.2995 5C10.2429 5 10.1863 5 10.1296 5C10.0728 5 10.016 5 9.95913 5C9.90224 5 9.84527 5 9.78821 5C9.73116 5 9.67402 5 9.6168 5C9.55958 5 9.50228 5 9.44489 5C9.38751 5 9.33004 5 9.27248 5C9.21493 5 9.1573 5 9.09958 5C9.04186 5 8.98406 5 8.92618 5C8.8683 5 8.81033 5 8.75228 5C8.69423 5 8.6361 5 8.57788 5C8.51966 5 8.46136 5 8.40298 5C8.34459 5 8.28612 5 8.22757 5C8.16902 5 8.11038 5 8.05167 5C7.99295 5 7.93414 5 7.87526 5C7.81637 5 7.7574 5 7.69834 5C7.63929 5 7.58015 5 7.52092 5C7.4617 5 7.40239 5 7.343 5C7.2836 5 7.22412 5 7.16456 5C7.105 5 7.04535 5 6.98562 5C6.92589 5 6.86607 5 6.80617 5C6.74627 5 6.68629 5 6.62621 5C6.56614 5 6.50599 5 6.44574 5C6.3855 5 6.32518 5 6.26476 5C6.20435 5 6.14385 5 6.08327 5C6.02269 5 5.96202 5 5.90127 5C5.84051 5 5.77967 5 5.71875 5C5.65782 5 5.59681 5 5.53571 5C5.47462 5 5.41343 5 5.35216 5C5.29089 5 5.22954 5 5.1681 5C5.10666 5 5.04513 5 4.98351 5C4.9219 5 4.8602 5 4.79841 5C4.73663 5 4.67475 5 4.61279 5C4.55083 5 4.48879 5 4.42665 5C4.36452 5 4.3023 5 4.23999 5C4.17768 5 4.11529 5 4.05281 5C3.99033 5 3.92776 5 3.8651 5C3.80245 5 3.73971 5 3.67688 5C3.61405 5 3.55113 5 3.48813 5C3.42512 5 3.36203 5 3.29885 5C3.23567 5 3.1724 5 3.10905 5C3.04569 5 2.98225 5 2.91872 5C2.85519 5 2.79157 5 2.72786 5C2.66415 5 2.60036 5 2.53647 5C2.47259 5 2.40862 5 2.34456 5C2.2805 5 2.21635 5 2.15212 5C2.08788 5 2.02355 5 1.95914 5C1.89473 5 1.83023 5 1.76563 5C1.70104 5 1.63636 5 1.57159 5C1.50683 5 1.44197 5 1.37702 5C1.31207 5 1.24704 5 1.18191 5C1.11679 5 1.05157 5 0.986271 5C0.920968 5 0.855575 5 0.790093 5C0.72461 5 0.659038 5 0.593377 5C0.527715 5 0.461964 5 0.396123 5C0.330283 5 0.264352 5 0.198331 5C0.132311 5 0.0662005 5 0 5V7Z" fill="#4100CB"/>
</svg>
