<svg width="260" height="125" viewBox="0 0 260 125" fill="none" xmlns="http://www.w3.org/2000/svg">
<path d="M260 4L249.128 0.111227L251.196 11.4715L260 4ZM0 125C108.932 125 162.801 98.9254 194.04 70.9002C209.637 56.907 219.548 42.4638 227.815 30.7039C231.957 24.8115 235.662 19.6274 239.467 15.4703C243.265 11.3196 247.112 8.25129 251.507 6.54451L250.783 4.68017C245.994 6.53987 241.903 9.84604 237.991 14.1201C234.086 18.3877 230.308 23.6787 226.179 29.5538C217.901 41.329 208.109 55.591 192.704 69.4115C161.937 97.0137 108.6 123 0 123V125Z" fill="#4100CB"/>
</svg>
