<svg width="24" height="24" viewBox="0 0 24 24" fill="none" xmlns="http://www.w3.org/2000/svg">
<path fill-rule="evenodd" clip-rule="evenodd" d="M23.7545 7.63636C23.9173 8.35049 24 9.08228 24 9.81818H14.1818V0C14.9177 0 15.6495 0.0827298 16.3636 0.245493C16.9007 0.3679 17.4278 0.535573 17.9391 0.747365C19.1303 1.24077 20.2126 1.96398 21.1243 2.87568C22.036 3.78738 22.7592 4.86973 23.2526 6.06093C23.4644 6.57224 23.6321 7.0993 23.7545 7.63636ZM21.4999 7.63636C21.4251 7.38565 21.3374 7.13848 21.2369 6.89587C20.8531 5.96939 20.2906 5.12756 19.5815 4.41846C18.8724 3.70936 18.0306 3.14686 17.1041 2.7631C16.8615 2.66261 16.6143 2.57489 16.3636 2.50014V7.63636H21.4999Z" fill="black"/>
<path fill-rule="evenodd" clip-rule="evenodd" d="M0 14.1818C0 8.75939 4.39575 4.36364 9.81818 4.36364C10.5541 4.36364 11.2859 4.44637 12 4.60913V12H19.3909C19.5536 12.7141 19.6364 13.4459 19.6364 14.1818C19.6364 19.6042 15.2406 24 9.81818 24C4.39575 24 0 19.6042 0 14.1818ZM17.2402 14.1818H9.81818V6.75979C5.71911 6.75979 2.39616 10.0827 2.39616 14.1818C2.39616 18.2809 5.71911 21.6038 9.81818 21.6038C13.9173 21.6038 17.2402 18.2809 17.2402 14.1818Z" fill="black"/>
</svg>
