<svg width="24" height="22" viewBox="0 0 24 22" fill="none" xmlns="http://www.w3.org/2000/svg">
<path fill-rule="evenodd" clip-rule="evenodd" d="M18.0386 1.04944C16.7606 -0.228638 14.6884 -0.228638 13.4103 1.04944L11.8675 2.59222C11.8018 2.65798 11.7394 2.72584 11.6804 2.79558C11.6214 2.72585 11.5591 2.658 11.4933 2.59226L9.95053 1.04948C8.67245 -0.2286 6.60028 -0.2286 5.3222 1.04948C4.04412 2.32756 4.04412 4.39973 5.3222 5.67781L6.28072 6.63634H0V13.1818H2.18182V21.9091H21.8182V13.1818H24V6.63634H17.0801L18.0386 5.67778C19.3167 4.3997 19.3167 2.32752 18.0386 1.04944ZM14.9531 5.67778L16.4959 4.135C16.9219 3.70897 16.9219 3.01825 16.4959 2.59222C16.0698 2.16619 15.3791 2.16619 14.9531 2.59222L13.4103 4.135C12.9843 4.56102 12.9843 5.25175 13.4103 5.67778C13.8363 6.1038 14.5271 6.1038 14.9531 5.67778ZM9.95053 4.13504L8.40775 2.59226C7.98173 2.16623 7.291 2.16623 6.86497 2.59226C6.43895 3.01828 6.43895 3.70901 6.86497 4.13504L8.40775 5.67781C8.83378 6.10384 9.5245 6.10384 9.95053 5.67781C10.3766 5.25179 10.3766 4.56106 9.95053 4.13504ZM21.8182 8.81815V11H2.18182V8.81815H21.8182ZM13.0001 13.1818H19.6364V19.7272H13.0001V13.1818ZM11.0001 13.1818V19.7272H4.36364V13.1818H11.0001Z" fill="black"/>
</svg>
